<svg viewBox="0 0 199 196" fill="none" xmlns="http://www.w3.org/2000/svg">
<path d="M198.5 97.9376C198.162 82.0885 185.103 75.7927 152.831 79.8276C147.101 80.5441 141.083 81.8397 135.096 83.305C140.371 80.1873 145.544 76.926 150.099 73.427C175.802 53.6882 180.536 40.0963 169.454 28.654C157.893 17.6851 144.163 22.3745 124.226 47.8186C120.691 52.3314 117.366 57.4502 114.183 62.6694C115.683 56.781 117.009 50.8629 117.729 45.2094C121.806 13.2612 115.446 0.335628 99.4355 0C83.4259 0.336035 77.0659 13.2604 81.1419 45.2086C81.8662 50.8792 83.1733 56.8308 84.6523 62.7558C81.504 57.5375 78.2091 52.4199 74.6768 47.9128C54.7361 22.4708 41.0059 17.7834 29.4456 28.7534C18.366 40.1982 23.1016 53.7889 48.807 73.5245C53.3659 77.0243 58.5403 80.3162 63.8139 83.4681C57.8642 81.9825 51.8824 80.6689 46.1688 79.9557C13.8944 75.9187 0.838229 82.2153 0.5 98.0632C0.838229 113.912 13.8957 120.208 46.1675 116.172C51.8993 115.455 57.9174 114.159 63.9062 112.693C58.6313 115.811 53.457 119.074 48.9014 122.573C23.1984 142.312 18.4649 155.903 29.5465 167.346C41.1081 178.315 54.8375 173.626 74.7732 148.181C78.3088 143.668 81.633 138.547 84.8171 133.327C83.3163 139.217 81.9906 145.136 81.2688 150.791C77.1932 182.74 83.5528 195.665 99.5624 196C115.572 195.664 121.933 182.74 117.856 150.791C117.132 145.12 115.824 139.165 114.346 133.239C117.495 138.459 120.79 143.579 124.323 148.088C144.264 173.53 157.994 178.217 169.553 167.247C180.633 155.802 175.897 142.212 150.192 122.476C145.634 118.976 140.462 115.686 135.189 112.534C141.138 114.019 147.116 115.331 152.829 116.046C185.104 120.081 198.162 113.786 198.5 97.9376Z" fill="#59AC6E"/>
<path d="M92.2807 133.202C88.6553 133.202 85.1671 129.859 84.1706 125.175C83.0648 119.979 85.4382 115.069 89.4615 114.229C93.4832 113.396 97.6581 116.936 98.7635 122.133C99.8688 127.329 97.4954 132.239 93.4725 133.079C93.0758 133.161 92.6774 133.202 92.2807 133.202ZM90.6591 116.655C90.4354 116.655 90.213 116.677 89.9922 116.723C87.4033 117.263 85.8906 120.893 86.6902 124.65C87.4894 128.407 90.3522 131.124 92.9423 130.585C95.5311 130.045 97.0435 126.415 96.2443 122.658C95.513 119.222 93.0552 116.655 90.6591 116.655Z" fill="black"/>
<path d="M85.1829 78.2171C85.1829 85.3171 78.27 91.0685 69.7261 91.0685C67.9653 91.0685 66.2792 90.821 64.7038 90.3715C58.6342 88.6379 54.2788 83.8494 54.2788 78.2171C54.2788 71.1172 61.1917 65.3564 69.7261 65.3564C71.9318 65.3564 74.0164 65.7419 75.9164 66.4298C81.3742 68.4114 85.1829 72.9425 85.1829 78.2171Z" fill="white"/>
<path d="M85.1829 78.2172C85.1829 85.3172 78.27 91.0686 69.7261 91.0686C67.9653 91.0686 66.2791 90.8211 64.7037 90.3716L75.9164 66.4299C81.3742 68.4115 85.1829 72.9426 85.1829 78.2172Z" fill="black"/>
<path d="M128.57 78.2171C128.57 85.3171 121.657 91.0685 113.113 91.0685C111.352 91.0685 109.666 90.821 108.09 90.3715C102.021 88.6379 97.6655 83.8494 97.6655 78.2171C97.6655 71.1172 104.578 65.3564 113.113 65.3564C115.319 65.3564 117.404 65.7419 119.304 66.4298C124.761 68.4114 128.57 72.9425 128.57 78.2171Z" fill="white"/>
<path d="M128.57 78.2172C128.57 85.3172 121.657 91.0686 113.113 91.0686C111.352 91.0686 109.666 90.8211 108.09 90.3716L119.303 66.4299C124.761 68.4115 128.57 72.9426 128.57 78.2172Z" fill="black"/>
</svg>
