<svg viewBox="0 0 115 114" fill="none" xmlns="http://www.w3.org/2000/svg">
<path d="M114.5 56.9637C114.305 47.7453 106.787 44.0835 88.2059 46.4303C84.9065 46.8471 81.442 47.6007 77.9946 48.4529C81.0316 46.6395 84.0101 44.7427 86.633 42.7075C101.431 31.2268 104.157 23.3213 97.7767 16.6661C91.1201 10.2862 83.2148 13.0137 71.7364 27.8128C69.7008 30.4376 67.7866 33.4149 65.954 36.4506C66.8174 33.0257 67.5807 29.5835 67.9956 26.2953C70.3429 7.71313 66.6813 0.195212 57.4629 0C48.2452 0.195449 44.5834 7.71267 46.9302 26.2948C47.3472 29.593 48.0998 33.0546 48.9513 36.5009C47.1387 33.4657 45.2416 30.4891 43.2079 27.8676C31.7269 13.0697 23.8216 10.3434 17.1656 16.7239C10.7865 23.3806 13.5131 31.2854 28.3131 42.7642C30.938 44.7999 33.9171 46.7145 36.9535 48.5478C33.5279 47.6837 30.0838 46.9197 26.7941 46.5048C8.21195 44.1568 0.694738 47.8191 0.5 57.0368C0.694738 66.2551 8.21267 69.9167 26.7934 67.5695C30.0935 67.1525 33.5585 66.3984 37.0066 65.5462C33.9696 67.3595 30.9904 69.2571 28.3675 71.2922C13.5688 82.7732 10.8434 90.6785 17.2237 97.3337C23.8804 103.714 31.7852 100.986 43.2634 86.1869C45.299 83.5621 47.2129 80.5836 49.0462 77.5473C48.1821 80.9729 47.4188 84.4158 47.0032 87.7052C44.6567 106.287 48.3183 113.805 57.5359 114C66.7536 113.805 70.4162 106.287 68.0686 87.7052C67.6516 84.4065 66.8988 80.9428 66.0475 77.4961C67.8608 80.5324 69.7577 83.5104 71.7921 86.1326C83.2731 100.931 91.1784 103.657 97.8337 97.2763C104.213 90.6196 101.486 82.7149 86.6862 71.236C84.062 69.2002 81.0841 67.2869 78.0484 65.4537C81.4733 66.317 84.9155 67.0803 88.2044 67.4959C106.787 69.8432 114.305 66.1816 114.5 56.9637Z" fill="#59AC6E"/>
<path d="M55.7231 46.3559C55.7231 49.9679 59.1413 52.8937 63.3661 52.8937C64.2366 52.8937 65.0706 52.7677 65.8495 52.539C68.8509 51.6571 71.0044 49.2211 71.0044 46.3559C71.0044 42.744 67.5861 39.8135 63.3661 39.8135C62.2755 39.8135 61.2445 40.0094 60.3052 40.3594C57.6064 41.3675 55.7231 43.6727 55.7231 46.3559Z" fill="white"/>
<path d="M55.7234 46.3565C55.7234 49.9685 59.1416 52.8943 63.3663 52.8943C64.2369 52.8943 65.0709 52.7683 65.8498 52.5396L60.3054 40.3599C57.6066 41.3681 55.7234 43.6733 55.7234 46.3565Z" fill="black"/>
<path d="M34.2695 46.3559C34.2695 49.9679 37.6879 52.8937 41.9125 52.8937C42.783 52.8937 43.617 52.7677 44.3959 52.539C47.3972 51.6571 49.5508 49.2211 49.5508 46.3559C49.5508 42.744 46.1325 39.8135 41.9125 39.8135C40.8219 39.8135 39.7909 40.0094 38.8516 40.3594C36.1527 41.3675 34.2695 43.6727 34.2695 46.3559Z" fill="white"/>
<path d="M34.2695 46.3565C34.2695 49.9685 37.6879 52.8943 41.9125 52.8943C42.783 52.8943 43.617 52.7683 44.3959 52.5396L38.8516 40.3599C36.1527 41.3681 34.2695 43.6733 34.2695 46.3565Z" fill="black"/>
<path d="M49.4869 72.0159C48.1428 72.0159 46.8267 71.6341 45.6472 70.8603C43.0636 69.1661 41.8654 66.0932 41.9824 61.4662C41.99 61.1816 42.2181 60.9543 42.4976 60.9534L58.8786 60.9077C58.8791 60.9077 58.8796 60.9077 58.8802 60.9077C59.03 60.9077 59.1724 60.974 59.2707 61.0892C59.3691 61.2051 59.4131 61.3588 59.3914 61.51C58.8984 64.9395 57.1698 68.0629 54.6489 70.0803C53.0448 71.3633 51.2425 72.0159 49.4869 72.0159ZM43.0077 62.0043C42.9906 65.9966 44.0128 68.5366 46.2062 69.9755C48.5459 71.5093 51.5361 71.2329 54.0099 69.253C56.1434 67.5459 57.7065 64.8543 58.267 61.9617L43.0077 62.0043Z" fill="black"/>
</svg>
