<svg width="331" height="320" viewBox="0 0 331 320" fill="none" xmlns="http://www.w3.org/2000/svg">
<circle cx="165.5" cy="160" r="160" fill="#DBF0DD"/>
<path d="M230.537 60.8916C237.165 60.8916 242.537 66.2642 242.537 72.8916V300.286C219.83 312.847 193.715 320 165.929 320C137.602 320 111.013 312.566 88 299.547V72.8916C88 66.2642 93.3726 60.8916 100 60.8916H230.537Z" fill="white"/>
<rect x="100.779" y="91.0465" width="117.554" height="58.1167" rx="1" fill="#F6F6F6"/>
<rect x="100.779" y="162.372" width="93.7792" height="10.5667" rx="1" fill="#F6F6F6"/>
<rect x="100.779" y="180.863" width="60.7583" height="7.925" rx="1" fill="#F6F6F6"/>
<rect x="100.779" y="191.43" width="60.7583" height="7.925" rx="1" fill="#F6F6F6"/>
<rect x="100.779" y="77.6299" width="60.7583" height="7.925" rx="1" fill="#F6F6F6"/>
<rect x="100.779" y="279" width="60.7583" height="7.925" rx="1" fill="#F6F6F6"/>
<g filter="url(#filter0_d_20989_8364)">
<rect x="24" y="109" width="283" height="106" rx="16" fill="white"/>
<path d="M50.912 133.028C50.268 133.383 49.4933 133.653 48.588 133.84C47.692 134.027 46.74 134.129 45.732 134.148V132.314C46.6 132.295 47.426 132.197 48.21 132.02C49.0033 131.843 49.5773 131.605 49.932 131.306H45.872V129.5H56.596V131.306H52.578C52.5687 131.343 52.5313 131.437 52.466 131.586L56.89 132.44L56.386 134.204L50.912 133.028ZM52.41 136.388V136.948C53.7633 137.023 54.8133 137.247 55.56 137.62C56.316 137.993 56.694 138.539 56.694 139.258C56.694 140.817 54.874 141.596 51.234 141.596C47.594 141.596 45.774 140.817 45.774 139.258C45.774 138.539 46.1473 137.993 46.894 137.62C47.65 137.247 48.7047 137.023 50.058 136.948V136.388H45.186V134.568H57.282V136.388H52.41ZM54.174 139.258C54.174 138.875 53.194 138.684 51.234 138.684C49.274 138.684 48.294 138.875 48.294 139.258C48.294 139.641 49.274 139.832 51.234 139.832C53.194 139.832 54.174 139.641 54.174 139.258ZM71.2808 131.488V133.784H69.8808V136.08H67.5148V129.5H69.8808V131.488H71.2808ZM62.3768 135.814C61.6208 135.814 60.9488 135.683 60.3608 135.422C59.7821 135.161 59.3341 134.792 59.0168 134.316C58.6995 133.84 58.5408 133.289 58.5408 132.664C58.5408 132.039 58.6995 131.488 59.0168 131.012C59.3341 130.536 59.7821 130.167 60.3608 129.906C60.9488 129.645 61.6208 129.514 62.3768 129.514C63.1328 129.514 63.8001 129.645 64.3788 129.906C64.9668 130.167 65.4195 130.536 65.7368 131.012C66.0541 131.488 66.2128 132.039 66.2128 132.664C66.2128 133.289 66.0541 133.84 65.7368 134.316C65.4195 134.792 64.9668 135.161 64.3788 135.422C63.8001 135.683 63.1328 135.814 62.3768 135.814ZM62.3768 131.432C61.9195 131.432 61.5555 131.544 61.2848 131.768C61.0235 131.992 60.8928 132.291 60.8928 132.664C60.8928 133.037 61.0235 133.336 61.2848 133.56C61.5555 133.784 61.9195 133.896 62.3768 133.896C62.8341 133.896 63.1935 133.784 63.4548 133.56C63.7255 133.336 63.8608 133.037 63.8608 132.664C63.8608 132.291 63.7255 131.992 63.4548 131.768C63.1935 131.544 62.8341 131.432 62.3768 131.432ZM64.6728 136.248C66.2875 136.248 67.5755 136.463 68.5368 136.892C69.5075 137.312 69.9928 137.989 69.9928 138.922C69.9928 139.855 69.5075 140.532 68.5368 140.952C67.5755 141.381 66.2875 141.596 64.6728 141.596C63.0581 141.596 61.7655 141.381 60.7948 140.952C59.8335 140.532 59.3528 139.855 59.3528 138.922C59.3528 137.989 59.8335 137.312 60.7948 136.892C61.7655 136.463 63.0581 136.248 64.6728 136.248ZM64.6728 139.706C65.5035 139.706 66.1708 139.645 66.6748 139.524C67.1881 139.393 67.4448 139.193 67.4448 138.922C67.4448 138.661 67.1881 138.465 66.6748 138.334C66.1708 138.203 65.5035 138.138 64.6728 138.138C63.8421 138.138 63.1701 138.203 62.6568 138.334C62.1528 138.465 61.9008 138.661 61.9008 138.922C61.9008 139.193 62.1528 139.393 62.6568 139.524C63.1701 139.645 63.8421 139.706 64.6728 139.706ZM81.0796 131.418H72.8196V129.5H83.4596V133.518H81.0796V131.418ZM84.2156 134.078V135.968H72.1196V134.078H76.0676V132.3H78.4476V134.078H84.2156ZM78.1676 136.584C79.8663 136.584 81.2009 136.785 82.1716 137.186C83.1423 137.587 83.6276 138.222 83.6276 139.09C83.6276 139.958 83.1423 140.593 82.1716 140.994C81.2009 141.395 79.8663 141.596 78.1676 141.596C76.4689 141.596 75.1343 141.395 74.1636 140.994C73.1929 140.593 72.7076 139.958 72.7076 139.09C72.7076 138.222 73.1929 137.587 74.1636 137.186C75.1343 136.785 76.4689 136.584 78.1676 136.584ZM78.1676 139.804C79.0729 139.804 79.7869 139.743 80.3096 139.622C80.8416 139.501 81.1076 139.323 81.1076 139.09C81.1076 138.857 80.8416 138.679 80.3096 138.558C79.7776 138.437 79.0636 138.376 78.1676 138.376C77.2716 138.376 76.5576 138.437 76.0256 138.558C75.4936 138.679 75.2276 138.857 75.2276 139.09C75.2276 139.323 75.4889 139.501 76.0116 139.622C76.5436 139.743 77.2623 139.804 78.1676 139.804ZM89.8424 134.246C88.7317 134.246 87.8404 134.041 87.1684 133.63C86.5057 133.21 86.1744 132.603 86.1744 131.81C86.1744 131.017 86.5057 130.415 87.1684 130.004C87.8404 129.584 88.7317 129.374 89.8424 129.374C90.9531 129.374 91.8397 129.584 92.5024 130.004C93.1744 130.415 93.5104 131.017 93.5104 131.81C93.5104 132.603 93.1744 133.21 92.5024 133.63C91.8397 134.041 90.9531 134.246 89.8424 134.246ZM94.8684 136.808V129.5H97.2344V138.782H94.8684V138.446H91.7884V136.808H94.8684ZM89.8424 131.11C89.4131 131.11 89.0724 131.171 88.8204 131.292C88.5777 131.404 88.4564 131.577 88.4564 131.81C88.4564 132.043 88.5777 132.221 88.8204 132.342C89.0724 132.454 89.4131 132.51 89.8424 132.51C90.2717 132.51 90.6077 132.454 90.8504 132.342C91.1024 132.221 91.2284 132.043 91.2284 131.81C91.2284 131.577 91.1024 131.404 90.8504 131.292C90.6077 131.171 90.2717 131.11 89.8424 131.11ZM97.4024 139.482V141.456H86.5384V137.662H88.4424V136.472H85.5864V134.652H91.0884C91.7044 134.652 92.2877 134.619 92.8384 134.554C93.3891 134.479 93.8371 134.367 94.1824 134.218V136.038C93.5197 136.327 92.4744 136.472 91.0464 136.472H90.7944V138.278H88.9044V139.482H97.4024ZM114.457 133.896H103.593V132.258H105.427V131.138H103.719V129.5H114.331V131.138H112.623V132.258H114.457V133.896ZM107.765 132.258H110.285V131.138H107.765V132.258ZM115.073 134.358V136.066H102.977V134.358H115.073ZM106.001 140H114.499V141.456H103.691V138.376H112.063V137.97H103.663V136.528H114.373V139.594H106.001V140ZM128.54 138.88V141.036H116.444V138.88H121.288V137.536H117.116V132.664H125.544V131.852H117.088V129.78H127.882V134.638H119.454V135.464H128.022V137.536H123.696V138.88H128.54ZM141.475 136.08H139.109V129.5H141.475V136.08ZM137.499 131.264C137.499 132.841 136.841 134.013 135.525 134.778C134.218 135.534 132.459 135.912 130.247 135.912V133.91C131.199 133.901 132.039 133.807 132.767 133.63C133.504 133.453 134.073 133.205 134.475 132.888C134.885 132.571 135.091 132.202 135.091 131.782V131.6H130.247V129.64H137.499V131.264ZM136.127 136.248C137.788 136.248 139.113 136.463 140.103 136.892C141.092 137.312 141.587 137.989 141.587 138.922C141.587 139.855 141.092 140.532 140.103 140.952C139.113 141.381 137.788 141.596 136.127 141.596C134.465 141.596 133.14 141.381 132.151 140.952C131.161 140.532 130.667 139.855 130.667 138.922C130.667 137.989 131.161 137.312 132.151 136.892C133.14 136.463 134.465 136.248 136.127 136.248ZM136.127 138.138C135.259 138.138 134.554 138.203 134.013 138.334C133.481 138.465 133.215 138.661 133.215 138.922C133.215 139.193 133.481 139.393 134.013 139.524C134.545 139.645 135.249 139.706 136.127 139.706C137.004 139.706 137.709 139.645 138.241 139.524C138.773 139.393 139.039 139.193 139.039 138.922C139.039 138.661 138.768 138.465 138.227 138.334C137.695 138.203 136.995 138.138 136.127 138.138Z" fill="#1A1A1A"/>
<path d="M52.5 172.667C56.1819 172.667 59.1666 169.682 59.1666 166C59.1666 162.318 56.1819 159.333 52.5 159.333C48.8181 159.333 45.8333 162.318 45.8333 166C45.8333 169.682 48.8181 172.667 52.5 172.667Z" stroke="#1A1A1A" stroke-width="1.5" stroke-linecap="round" stroke-linejoin="round"/>
<path d="M52.5 163.333V166L53.8333 167.333" stroke="#1A1A1A" stroke-width="1.5" stroke-linecap="round" stroke-linejoin="round"/>
<path d="M81.212 169.58V170.882H69.27V169.58H74.52V167.032C73.5773 166.967 72.7513 166.775 72.042 166.458C71.342 166.141 70.8007 165.721 70.418 165.198C70.0353 164.666 69.844 164.064 69.844 163.392C69.844 162.664 70.068 162.025 70.516 161.474C70.964 160.914 71.594 160.48 72.406 160.172C73.218 159.864 74.1607 159.71 75.234 159.71C76.3073 159.71 77.25 159.864 78.062 160.172C78.874 160.48 79.504 160.914 79.952 161.474C80.4 162.025 80.624 162.664 80.624 163.392C80.624 164.064 80.4327 164.666 80.05 165.198C79.6673 165.721 79.1213 166.141 78.412 166.458C77.7027 166.775 76.8767 166.967 75.934 167.032V169.58H81.212ZM71.314 163.392C71.314 163.868 71.4773 164.288 71.804 164.652C72.1307 165.016 72.588 165.301 73.176 165.506C73.7733 165.702 74.4593 165.8 75.234 165.8C76.018 165.8 76.704 165.702 77.292 165.506C77.8893 165.301 78.3513 165.016 78.678 164.652C79.0047 164.288 79.168 163.868 79.168 163.392C79.168 162.916 79.0047 162.496 78.678 162.132C78.3513 161.759 77.8893 161.474 77.292 161.278C76.704 161.073 76.018 160.97 75.234 160.97C74.4593 160.97 73.7733 161.073 73.176 161.278C72.588 161.474 72.1307 161.759 71.804 162.132C71.4773 162.496 71.314 162.916 71.314 163.392ZM92.6068 162.328V159.5H93.9928V168.39H92.6068V163.546H90.2828V162.328H92.6068ZM86.9508 164.022C86.5401 164.778 85.9941 165.389 85.3128 165.856C84.6315 166.313 83.8521 166.589 82.9748 166.682V165.408C83.9641 165.268 84.7575 164.806 85.3548 164.022C85.9521 163.229 86.2835 162.225 86.3488 161.012H83.1288V159.808H90.7588V161.012H87.7488C87.7208 161.628 87.6181 162.239 87.4408 162.846L91.1088 165.576L90.3248 166.584L86.9508 164.022ZM94.2448 170.056V171.302H83.8148V167.494H85.2288V170.056H94.2448ZM103.963 171.414C103.189 171.414 102.498 171.279 101.891 171.008C101.294 170.737 100.827 170.359 100.491 169.874C100.155 169.389 99.9874 168.838 99.9874 168.222C99.9874 167.69 100.104 167.223 100.337 166.822C100.58 166.421 100.879 166.099 101.233 165.856C101.597 165.604 101.966 165.436 102.339 165.352C102.022 165.259 101.714 165.095 101.415 164.862C101.117 164.619 100.869 164.321 100.673 163.966C100.477 163.602 100.379 163.196 100.379 162.748C100.379 162.188 100.529 161.675 100.827 161.208C101.135 160.741 101.56 160.373 102.101 160.102C102.643 159.822 103.263 159.682 103.963 159.682C104.654 159.682 105.27 159.822 105.811 160.102C106.353 160.373 106.773 160.746 107.071 161.222C107.379 161.689 107.533 162.197 107.533 162.748C107.533 163.196 107.435 163.602 107.239 163.966C107.043 164.321 106.796 164.619 106.497 164.862C106.199 165.095 105.891 165.259 105.573 165.352C105.947 165.436 106.311 165.604 106.665 165.856C107.029 166.099 107.328 166.421 107.561 166.822C107.804 167.223 107.925 167.69 107.925 168.222C107.925 168.838 107.757 169.389 107.421 169.874C107.085 170.359 106.614 170.737 106.007 171.008C105.41 171.279 104.729 171.414 103.963 171.414ZM103.963 164.694C104.383 164.694 104.757 164.61 105.083 164.442C105.41 164.274 105.667 164.045 105.853 163.756C106.04 163.467 106.133 163.145 106.133 162.79C106.133 162.445 106.04 162.132 105.853 161.852C105.676 161.563 105.424 161.334 105.097 161.166C104.771 160.998 104.393 160.914 103.963 160.914C103.319 160.914 102.797 161.091 102.395 161.446C101.994 161.791 101.793 162.23 101.793 162.762C101.793 163.117 101.887 163.443 102.073 163.742C102.26 164.031 102.517 164.265 102.843 164.442C103.17 164.61 103.543 164.694 103.963 164.694ZM103.963 170.182C104.467 170.182 104.911 170.093 105.293 169.916C105.676 169.739 105.97 169.496 106.175 169.188C106.39 168.871 106.497 168.521 106.497 168.138C106.497 167.746 106.385 167.391 106.161 167.074C105.947 166.757 105.643 166.509 105.251 166.332C104.869 166.145 104.439 166.052 103.963 166.052C103.478 166.052 103.039 166.145 102.647 166.332C102.265 166.509 101.961 166.757 101.737 167.074C101.523 167.391 101.415 167.746 101.415 168.138C101.415 168.521 101.518 168.871 101.723 169.188C101.938 169.496 102.237 169.739 102.619 169.916C103.011 170.093 103.459 170.182 103.963 170.182ZM120.487 159.5V171.456H119.101V159.5H120.487ZM114.677 159.85C114.658 161.717 114.499 163.355 114.201 164.764L118.065 169.916L116.945 170.714L113.767 166.374C113.319 167.709 112.735 168.754 112.017 169.51C111.298 170.266 110.472 170.677 109.539 170.742V169.342C110.313 169.221 110.981 168.726 111.541 167.858C112.101 166.981 112.525 165.842 112.815 164.442C113.104 163.042 113.253 161.493 113.263 159.794L114.677 159.85Z" fill="#1A1A1A"/>
<path d="M49.1667 191C47.9474 191.275 47.1667 191.696 47.1667 192.169C47.1667 192.996 49.5547 193.667 52.5 193.667C55.4454 193.667 57.8334 192.996 57.8334 192.169C57.8334 191.696 57.0527 191.275 55.8334 191M54.1667 185C54.1667 185.442 53.9911 185.866 53.6785 186.179C53.366 186.491 52.942 186.667 52.5 186.667C52.058 186.667 51.6341 186.491 51.3215 186.179C51.0089 185.866 50.8334 185.442 50.8334 185C50.8334 184.558 51.0089 184.134 51.3215 183.822C51.6341 183.509 52.058 183.333 52.5 183.333C52.942 183.333 53.366 183.509 53.6785 183.822C53.9911 184.134 54.1667 184.558 54.1667 185Z" stroke="#1A1A1A" stroke-width="1.5" stroke-linecap="round" stroke-linejoin="round"/>
<path d="M53.338 190.663C53.1128 190.879 52.8125 191 52.5 191C52.1875 191 51.8872 190.879 51.662 190.663C49.6027 188.667 46.8433 186.439 48.1887 183.203C48.9173 181.453 50.664 180.333 52.5 180.333C54.336 180.333 56.0833 181.453 56.8113 183.203C58.1553 186.434 55.4027 188.674 53.338 190.663Z" stroke="#1A1A1A" stroke-width="1.5" stroke-linecap="round" stroke-linejoin="round"/>
<path d="M79.154 186.4H77.39V185.252H79.154V183.936H77.39V182.802H79.154V181.5H80.526V188.402H79.154V186.4ZM77.334 187.422C76.942 187.562 76.41 187.674 75.738 187.758C75.066 187.833 74.31 187.87 73.47 187.87H69.354V186.722H70.754V182.942H69.396V181.794H77.012V182.942H75.626V186.638C76.354 186.554 76.9233 186.437 77.334 186.288V187.422ZM72.084 186.722H73.568C73.8947 186.722 74.1373 186.717 74.296 186.708V182.942H72.084V186.722ZM75.458 188.78C77.0167 188.78 78.2673 188.971 79.21 189.354C80.1527 189.727 80.624 190.315 80.624 191.118C80.624 191.921 80.1527 192.509 79.21 192.882C78.2673 193.265 77.0167 193.456 75.458 193.456C73.8993 193.456 72.6487 193.265 71.706 192.882C70.7633 192.509 70.292 191.921 70.292 191.118C70.292 190.315 70.7633 189.727 71.706 189.354C72.6487 188.971 73.8993 188.78 75.458 188.78ZM75.458 192.336C76.55 192.336 77.4367 192.233 78.118 192.028C78.7993 191.823 79.14 191.519 79.14 191.118C79.14 190.717 78.7993 190.413 78.118 190.208C77.4367 190.003 76.55 189.9 75.458 189.9C74.366 189.9 73.4793 190.003 72.798 190.208C72.1167 190.413 71.776 190.717 71.776 191.118C71.776 191.519 72.1167 191.823 72.798 192.028C73.4793 192.233 74.366 192.336 75.458 192.336ZM88.4068 185.154C87.7908 185.695 87.0161 186.125 86.0828 186.442C85.1495 186.75 84.1928 186.913 83.2128 186.932V185.784C83.8755 185.765 84.5428 185.663 85.2148 185.476C85.8868 185.28 86.4795 185.009 86.9928 184.664C87.5061 184.319 87.8608 183.913 88.0568 183.446H83.4368V182.326H88.0008V181.024H89.4148V182.326H93.9648V183.446H89.5268C89.4615 183.698 89.3448 183.964 89.1768 184.244L94.2728 185.868L93.8808 186.946L88.4068 185.154ZM94.6788 188.122V189.284H82.7368V188.122H88.0008V186.456H89.4008V188.122H94.6788ZM84.9768 192.14H94.0628V193.316H83.5628V190.138H84.9768V192.14ZM112.629 187.674H110.949V193.456H109.563V181.5H110.949V186.344H112.629V187.674ZM104.075 181.78C104.785 181.78 105.405 181.985 105.937 182.396C106.469 182.797 106.885 183.413 107.183 184.244C107.482 185.075 107.631 186.106 107.631 187.338C107.631 188.57 107.482 189.601 107.183 190.432C106.885 191.263 106.469 191.879 105.937 192.28C105.405 192.691 104.785 192.896 104.075 192.896C102.983 192.896 102.115 192.429 101.471 191.496C100.827 190.563 100.505 189.177 100.505 187.338C100.505 185.499 100.827 184.113 101.471 183.18C102.115 182.247 102.983 181.78 104.075 181.78ZM104.075 191.622C104.729 191.622 105.251 191.272 105.643 190.572C106.045 189.863 106.245 188.785 106.245 187.338C106.245 185.891 106.045 184.818 105.643 184.118C105.251 183.409 104.729 183.054 104.075 183.054C103.413 183.054 102.881 183.409 102.479 184.118C102.087 184.818 101.891 185.891 101.891 187.338C101.891 188.785 102.087 189.863 102.479 190.572C102.881 191.272 103.413 191.622 104.075 191.622ZM123.254 187.618H114.364V186.33H123.254V183.236H114.364V181.934H124.654V190.446H123.254V187.618ZM125.536 191.58V192.882H113.594V191.58H125.536ZM139.003 191.608V192.882H127.061V191.608H132.297V189.354H127.859V185.042H136.847V183.166H127.859V181.934H138.219V186.232H129.245V188.122H138.401V189.354H133.711V191.608H139.003ZM150.22 184.552C149.632 185.019 148.88 185.383 147.966 185.644C147.051 185.896 146.085 186.031 145.068 186.05V184.916C145.796 184.897 146.505 184.804 147.196 184.636C147.896 184.459 148.493 184.211 148.988 183.894C149.492 183.577 149.804 183.199 149.926 182.76H145.264V181.64H155.568V182.76H151.34C151.302 183.077 151.195 183.371 151.018 183.642L155.89 185.014L155.526 186.106L150.22 184.552ZM151.102 188.024V189.158C152.492 189.205 153.598 189.401 154.42 189.746C155.25 190.082 155.666 190.6 155.666 191.3C155.666 192.065 155.18 192.621 154.21 192.966C153.248 193.311 151.984 193.484 150.416 193.484C148.848 193.484 147.578 193.311 146.608 192.966C145.646 192.621 145.166 192.065 145.166 191.3C145.166 190.6 145.576 190.082 146.398 189.746C147.228 189.401 148.339 189.205 149.73 189.158V188.024H144.452V186.904H156.394V188.024H151.102ZM154.21 191.3C154.21 190.927 153.85 190.656 153.132 190.488C152.413 190.32 151.508 190.236 150.416 190.236C149.324 190.236 148.418 190.32 147.7 190.488C146.99 190.656 146.636 190.927 146.636 191.3C146.636 191.683 146.99 191.958 147.7 192.126C148.418 192.303 149.324 192.392 150.416 192.392C151.508 192.392 152.413 192.303 153.132 192.126C153.85 191.958 154.21 191.683 154.21 191.3ZM170.42 183.95V185.28H168.74V188.108H167.354V181.5H168.74V183.95H170.42ZM165.338 184.664C165.338 185.261 165.189 185.793 164.89 186.26C164.592 186.717 164.162 187.072 163.602 187.324C163.042 187.576 162.394 187.702 161.656 187.702C160.91 187.702 160.256 187.576 159.696 187.324C159.146 187.072 158.716 186.717 158.408 186.26C158.11 185.793 157.96 185.261 157.96 184.664C157.96 184.067 158.11 183.539 158.408 183.082C158.716 182.625 159.146 182.27 159.696 182.018C160.256 181.757 160.91 181.626 161.656 181.626C162.394 181.626 163.038 181.757 163.588 182.018C164.148 182.27 164.578 182.625 164.876 183.082C165.184 183.539 165.338 184.067 165.338 184.664ZM159.346 184.664C159.346 185.252 159.556 185.714 159.976 186.05C160.396 186.386 160.956 186.554 161.656 186.554C162.347 186.554 162.902 186.386 163.322 186.05C163.742 185.714 163.952 185.252 163.952 184.664C163.952 184.076 163.742 183.614 163.322 183.278C162.902 182.942 162.347 182.774 161.656 182.774C160.956 182.774 160.396 182.942 159.976 183.278C159.556 183.614 159.346 184.076 159.346 184.664ZM163.868 188.5C165.39 188.5 166.612 188.701 167.536 189.102C168.46 189.503 168.922 190.129 168.922 190.978C168.922 191.827 168.46 192.453 167.536 192.854C166.612 193.255 165.39 193.456 163.868 193.456C162.347 193.456 161.124 193.255 160.2 192.854C159.276 192.453 158.814 191.827 158.814 190.978C158.814 190.129 159.276 189.503 160.2 189.102C161.124 188.701 162.347 188.5 163.868 188.5ZM163.868 192.308C164.932 192.308 165.791 192.196 166.444 191.972C167.107 191.748 167.438 191.417 167.438 190.978C167.438 190.539 167.107 190.208 166.444 189.984C165.782 189.76 164.923 189.648 163.868 189.648C162.814 189.648 161.955 189.76 161.292 189.984C160.63 190.208 160.298 190.539 160.298 190.978C160.298 191.417 160.63 191.748 161.292 191.972C161.955 192.196 162.814 192.308 163.868 192.308ZM181.059 182.816H172.183V181.64H182.445V185.7H181.059V182.816ZM183.327 186.54V187.688H171.385V186.54H175.865V184.202H177.265V186.54H183.327ZM177.349 188.808C178.899 188.808 180.159 188.999 181.129 189.382C182.109 189.765 182.599 190.348 182.599 191.132C182.599 191.925 182.109 192.513 181.129 192.896C180.159 193.279 178.899 193.47 177.349 193.47C175.8 193.47 174.535 193.279 173.555 192.896C172.585 192.513 172.099 191.925 172.099 191.132C172.099 190.32 172.58 189.732 173.541 189.368C174.512 188.995 175.781 188.808 177.349 188.808ZM177.349 192.364C178.404 192.364 179.3 192.257 180.037 192.042C180.775 191.837 181.143 191.533 181.143 191.132C181.143 190.74 180.775 190.441 180.037 190.236C179.3 190.021 178.404 189.914 177.349 189.914C176.276 189.914 175.375 190.017 174.647 190.222C173.919 190.418 173.555 190.721 173.555 191.132C173.555 191.533 173.924 191.837 174.661 192.042C175.399 192.257 176.295 192.364 177.349 192.364ZM194.722 189.004V181.5H196.108V190.866H194.722V190.124H191.096V189.004H194.722ZM189.108 186.19C188.044 186.19 187.185 185.985 186.532 185.574C185.888 185.163 185.566 184.589 185.566 183.852C185.566 183.115 185.888 182.545 186.532 182.144C187.185 181.733 188.044 181.528 189.108 181.528C190.172 181.528 191.026 181.733 191.67 182.144C192.323 182.545 192.65 183.115 192.65 183.852C192.65 184.589 192.323 185.163 191.67 185.574C191.026 185.985 190.172 186.19 189.108 186.19ZM189.108 182.62C188.455 182.62 187.927 182.727 187.526 182.942C187.125 183.147 186.924 183.451 186.924 183.852C186.924 184.253 187.125 184.561 187.526 184.776C187.927 184.991 188.455 185.098 189.108 185.098C189.761 185.098 190.289 184.991 190.69 184.776C191.091 184.561 191.292 184.253 191.292 183.852C191.292 183.451 191.091 183.147 190.69 182.942C190.289 182.727 189.761 182.62 189.108 182.62ZM188.156 188.178H184.852V187.03H189.794C191.661 187.03 192.967 186.871 193.714 186.554V187.702C193.005 188.019 191.684 188.178 189.752 188.178H189.542V190.32H188.156V188.178ZM196.416 192.126V193.302H185.958V189.676H187.344V192.126H196.416Z" fill="#1A1A1A"/>
<path d="M232.99 139.212C232.318 139.212 231.726 139.084 231.214 138.828C230.71 138.58 230.318 138.236 230.038 137.796C229.758 137.348 229.606 136.844 229.582 136.284H230.83C230.846 136.82 231.046 137.26 231.43 137.604C231.814 137.948 232.334 138.12 232.99 138.12C233.43 138.12 233.81 138.044 234.13 137.892C234.458 137.74 234.706 137.532 234.874 137.268C235.05 137.004 235.138 136.712 235.138 136.392C235.138 135.856 234.934 135.436 234.526 135.132C234.118 134.828 233.55 134.676 232.822 134.676H231.766V133.632H232.822C233.43 133.632 233.922 133.476 234.298 133.164C234.682 132.844 234.874 132.436 234.874 131.94C234.874 131.628 234.794 131.344 234.634 131.088C234.474 130.824 234.238 130.616 233.926 130.464C233.622 130.312 233.266 130.236 232.858 130.236C232.442 130.236 232.082 130.324 231.778 130.5C231.474 130.676 231.242 130.912 231.082 131.208C230.93 131.504 230.854 131.824 230.854 132.168H229.594C229.594 131.608 229.73 131.1 230.002 130.644C230.274 130.18 230.658 129.816 231.154 129.552C231.65 129.288 232.218 129.156 232.858 129.156C233.498 129.156 234.066 129.28 234.562 129.528C235.058 129.768 235.442 130.1 235.714 130.524C235.986 130.94 236.122 131.4 236.122 131.904C236.122 132.464 235.954 132.944 235.618 133.344C235.282 133.744 234.878 134 234.406 134.112C234.942 134.208 235.402 134.456 235.786 134.856C236.178 135.248 236.374 135.756 236.374 136.38C236.374 136.916 236.23 137.4 235.942 137.832C235.662 138.256 235.262 138.592 234.742 138.84C234.23 139.088 233.646 139.212 232.99 139.212ZM248.341 134.292H246.901V139.248H245.713V129H246.901V133.152H248.341V134.292ZM241.849 130.464C241.841 131.648 241.737 132.732 241.537 133.716L244.825 137.844L243.889 138.552L241.189 135.06C240.837 136.124 240.365 136.964 239.773 137.58C239.189 138.196 238.513 138.548 237.745 138.636V137.46C238.337 137.348 238.849 136.98 239.281 136.356C239.713 135.732 240.045 134.912 240.277 133.896C240.509 132.88 240.633 131.736 240.649 130.464H237.985V129.372H244.429V130.464H241.849ZM257.544 129H258.732V139.248H257.544V129ZM249.756 133.38H254.34V130.464H249.732V129.372H255.528V134.472H250.944V137.544H253.944C254.432 137.544 254.916 137.5 255.396 137.412C255.884 137.324 256.284 137.204 256.596 137.052V138.144C256.292 138.296 255.896 138.416 255.408 138.504C254.92 138.592 254.42 138.636 253.908 138.636H249.756V133.38ZM274.79 132.012H273.35V134.448H272.162V129H273.35V130.86H274.79V132.012ZM271.418 133.5C271.098 133.636 270.646 133.748 270.062 133.836C269.486 133.916 268.838 133.956 268.118 133.956H264.434V129.192H265.634V132.924H268.19C268.886 132.924 269.514 132.884 270.074 132.804C270.642 132.724 271.09 132.612 271.418 132.468V133.5ZM264.782 135.072H273.35V139.116H264.782V135.072ZM265.97 138.108H272.162V136.092H265.97V138.108ZM280.729 132.888C279.393 132.888 278.305 132.724 277.465 132.396C276.625 132.068 276.205 131.572 276.205 130.908C276.205 130.244 276.625 129.752 277.465 129.432C278.305 129.104 279.393 128.94 280.729 128.94C282.065 128.94 283.153 129.104 283.993 129.432C284.833 129.752 285.253 130.244 285.253 130.908C285.253 131.572 284.833 132.068 283.993 132.396C283.153 132.724 282.065 132.888 280.729 132.888ZM280.729 131.94C281.689 131.94 282.473 131.856 283.081 131.688C283.689 131.512 283.993 131.252 283.993 130.908C283.993 130.572 283.685 130.316 283.069 130.14C282.461 129.964 281.681 129.876 280.729 129.876C279.777 129.876 278.993 129.964 278.377 130.14C277.769 130.316 277.465 130.572 277.465 130.908C277.465 131.252 277.769 131.512 278.377 131.688C278.985 131.856 279.769 131.94 280.729 131.94ZM275.617 133.692H285.853V134.652H275.617V133.692ZM276.325 135.648H285.133V139.128H276.325V135.648ZM283.957 138.18V136.596H277.513V138.18H283.957Z" fill="#888888"/>
<rect x="215.5" y="165" width="71" height="34" rx="17" fill="#59AC6E"/>
<path d="M231.58 180.828C231.22 181.348 230.756 181.776 230.188 182.112C229.628 182.448 229 182.656 228.304 182.736V181.704C229.064 181.592 229.688 181.288 230.176 180.792C230.672 180.288 230.98 179.672 231.1 178.944H228.412V177.948H231.124V176.82H232.324V177.948H235V178.944H232.312C232.264 179.28 232.18 179.604 232.06 179.916L235.18 181.728L234.616 182.628L231.58 180.828ZM238.876 180.408H237.436V182.94H236.248V177H237.436V179.268H238.876V180.408ZM228.868 183.504H237.436V187.116H228.868V183.504ZM230.044 186.144H236.26V184.476H230.044V186.144ZM249.339 177V183.24H248.151V179.952H245.679V178.872H248.151V177H249.339ZM243.075 180.612C242.699 181.252 242.223 181.776 241.647 182.184C241.071 182.592 240.427 182.844 239.715 182.94V181.836C240.331 181.724 240.871 181.444 241.335 180.996C241.799 180.54 242.155 179.972 242.403 179.292C242.651 178.612 242.779 177.88 242.787 177.096L243.975 177.168C243.975 178.048 243.831 178.868 243.543 179.628L246.735 182.04L246.027 182.856L243.075 180.612ZM240.531 183.804H249.339V187.248H248.127V184.836H240.531V183.804ZM255.398 178.62H258.122V179.676H251.474V178.62H254.186V176.976H255.398V178.62ZM261.962 182.292H260.522V187.248H259.334V177H260.522V181.152H261.962V182.292ZM254.798 180.492C255.35 180.492 255.842 180.624 256.274 180.888C256.706 181.144 257.042 181.512 257.282 181.992C257.522 182.464 257.642 183.008 257.642 183.624C257.642 184.24 257.522 184.788 257.282 185.268C257.042 185.74 256.706 186.104 256.274 186.36C255.842 186.624 255.35 186.756 254.798 186.756C254.246 186.756 253.754 186.624 253.322 186.36C252.89 186.104 252.55 185.74 252.302 185.268C252.062 184.788 251.942 184.24 251.942 183.624C251.942 183.008 252.062 182.464 252.302 181.992C252.55 181.512 252.89 181.144 253.322 180.888C253.754 180.624 254.246 180.492 254.798 180.492ZM254.798 185.724C255.118 185.724 255.406 185.64 255.662 185.472C255.918 185.304 256.118 185.06 256.262 184.74C256.414 184.42 256.49 184.048 256.49 183.624C256.49 183.2 256.414 182.828 256.262 182.508C256.118 182.188 255.918 181.944 255.662 181.776C255.406 181.608 255.118 181.524 254.798 181.524C254.302 181.524 253.894 181.716 253.574 182.1C253.254 182.476 253.094 182.984 253.094 183.624C253.094 184.264 253.254 184.776 253.574 185.16C253.894 185.536 254.302 185.724 254.798 185.724ZM271.165 177H272.353V187.248H271.165V177ZM263.269 185.484C264.189 185.484 264.985 185.256 265.657 184.8C266.337 184.336 266.853 183.684 267.205 182.844C267.565 181.996 267.745 181.004 267.745 179.868V178.464H263.269V177.372H268.957V179.844C268.957 181.204 268.725 182.396 268.261 183.42C267.805 184.436 267.145 185.224 266.281 185.784C265.425 186.336 264.421 186.612 263.269 186.612V185.484Z" fill="white"/>
</g>
<defs>
<filter id="filter0_d_20989_8364" x="0" y="89" width="331" height="154" filterUnits="userSpaceOnUse" color-interpolation-filters="sRGB">
<feFlood flood-opacity="0" result="BackgroundImageFix"/>
<feColorMatrix in="SourceAlpha" type="matrix" values="0 0 0 0 0 0 0 0 0 0 0 0 0 0 0 0 0 0 127 0" result="hardAlpha"/>
<feOffset dy="4"/>
<feGaussianBlur stdDeviation="12"/>
<feComposite in2="hardAlpha" operator="out"/>
<feColorMatrix type="matrix" values="0 0 0 0 0.668269 0 0 0 0 0.668269 0 0 0 0 0.668269 0 0 0 0.15 0"/>
<feBlend mode="normal" in2="BackgroundImageFix" result="effect1_dropShadow_20989_8364"/>
<feBlend mode="normal" in="SourceGraphic" in2="effect1_dropShadow_20989_8364" result="shape"/>
</filter>
</defs>
</svg>
