<svg xmlns="http://www.w3.org/2000/svg" width="56" height="56" viewBox="0 0 56 56" fill="none">
  <path d="M56 28.0002C56 30.9251 55.5556 33.748 54.7207 36.3966C53.4475 40.4446 51.2853 44.0962 48.4565 47.1172C48.3964 47.1893 48.3363 47.2553 48.2703 47.3214L48.1982 47.3935C48.1381 47.4595 48.0721 47.5256 48.012 47.5857C46.3303 49.3034 44.4264 50.8109 42.3423 52.0481C38.1502 54.5586 33.2432 56 28 56C26.9309 56 25.8679 55.9399 24.8288 55.8258C24.6847 55.8138 24.5465 55.7958 24.4084 55.7778C24.3964 55.7718 24.3904 55.7718 24.3784 55.7718C23.0511 55.5976 21.7538 55.3333 20.4925 54.979C19.009 54.5706 17.5736 54.0361 16.2042 53.3994C15.994 53.3033 15.7838 53.2012 15.5736 53.0991C14.2222 52.4325 12.9369 51.6577 11.7297 50.7868C10.5165 49.922 9.37538 48.961 8.31832 47.91C7.18318 46.7929 6.14414 45.5677 5.21922 44.2704C4.99099 43.9461 4.76276 43.6217 4.54655 43.2854C4.00601 42.4686 3.51351 41.6218 3.06907 40.7509C1.1051 36.9251 0 32.5948 0 28.0002C0 12.5349 12.5345 0.000488281 28 0.000488281C43.4655 0.000488281 56 12.5349 56 28.0002Z" fill="#EDDDD6"/>
  <path d="M21.9668 15.2138C21.9668 15.2138 12.4203 18.8648 11.9332 29.6695C11.2293 45.2868 29.9458 41.6658 29.9458 41.6658C29.9458 41.6658 40.5464 42.7655 43.4785 34.9512C46.4107 27.1368 36.9854 22.4192 36.9854 22.4192C36.9854 22.4192 25.5578 12.3568 21.9668 15.2138Z" fill="black"/>
  <path d="M48.198 47.3939C48.1379 47.4599 48.0719 47.526 48.0118 47.586C46.4082 49.2197 44.6064 50.6671 42.6364 51.8683C42.5403 51.9284 42.4382 51.9884 42.3421 52.0485C42.216 52.1266 42.0839 52.2046 41.9518 52.2767C37.8497 54.6491 33.0809 56.0004 27.9998 56.0004C26.9307 56.0004 25.8677 55.9403 24.8286 55.8262C24.6845 55.8142 24.5463 55.7962 24.4082 55.7782C24.3962 55.7722 24.3902 55.7722 24.3782 55.7722C23.0509 55.598 21.7536 55.3337 20.4923 54.9794C19.0088 54.571 17.5734 54.0364 16.204 53.3998C15.9938 53.3037 15.7836 53.2016 15.5734 53.0995C14.222 52.4329 12.9367 51.6581 11.7295 50.7872C10.5163 49.9224 9.37517 48.9614 8.31812 47.9104C10.3481 42.2948 15.5433 31.8264 26.4382 30.1207C26.4623 30.1207 26.4863 30.1147 26.5103 30.1087C27.237 30.0006 27.9938 29.9285 28.7746 29.8985C41.0629 29.4481 46.2701 41.0215 48.198 47.3939Z" fill="#7C6053"/>
  <path d="M42.3422 52.0483C38.15 54.5588 33.2431 56.0002 27.9999 56.0002C26.9308 56.0002 25.8677 55.9401 24.8287 55.826C24.6845 55.814 24.5464 55.796 24.4083 55.778C24.3963 55.772 24.3903 55.772 24.3782 55.772C23.0509 55.5978 21.7536 55.3335 20.4924 54.9792C19.0089 54.5708 17.5734 54.0362 16.2041 53.3996C15.9939 53.3035 15.7836 53.2014 15.5734 53.0993C14.2221 52.4327 12.9368 51.6579 11.7296 50.787C11.6755 46.6609 11.6455 43.4057 11.6455 43.4057L22.3122 35.4899L27.5494 31.604C27.6155 31.604 27.6815 31.604 27.7476 31.61C30.6305 31.6701 33.0629 32.2587 34.9788 32.9674C35.2852 33.0875 35.5794 33.2016 35.8617 33.3217C38.5224 34.4508 39.9638 35.7181 39.9638 35.7181C39.9638 35.7181 41.2131 43.9943 42.3422 52.0483Z" fill="#7C6053"/>
  <path d="M42.6365 51.868C42.5404 51.9281 42.4383 51.9882 42.3422 52.0482C42.2161 52.1263 42.084 52.2044 41.9518 52.2764C43.2552 45.4717 40.5885 41.5738 40.5584 41.5318C40.4624 41.3936 40.4864 41.1955 40.6185 41.0934C40.7567 40.9912 40.9428 41.0213 41.0389 41.1594C41.1591 41.3276 43.7657 45.1113 42.6365 51.868Z" fill="#FCB35B"/>
  <path d="M34.6609 33.0037C34.6609 33.0037 33.766 33.7184 31.1594 33.6103C27.6579 33.4662 26.5348 31.5683 26.5348 31.5683L26.3606 24.8537V24.7876L27.4237 24.9978L34.0963 26.241L34.3546 29.3161L34.6609 33.0037Z" fill="#FCA397"/>
  <path d="M24.8288 55.8255C24.6846 55.8134 24.5465 55.7954 24.4083 55.7774C24.3963 55.7714 24.3903 55.7714 24.3783 55.7714C23.051 55.5972 21.7537 55.333 20.4924 54.9786L22.3123 35.4893L22.3723 34.8707L26.4384 30.12L26.4864 30.0659C26.4864 30.0659 26.4924 30.0779 26.5104 30.108C26.6126 30.2701 27.033 30.9188 27.7477 31.6095C29.1171 32.9368 31.5795 34.4322 34.9669 32.9728C35.5255 32.7326 35.8017 32.8767 35.8618 33.3211C36.1741 35.7716 29.6996 47.4532 24.8288 55.8255Z" fill="#7C6053"/>
  <path d="M32.1713 33.8711C28.2547 33.8711 26.2481 30.2567 26.2241 30.2117C26.1454 30.0663 26.1995 29.8838 26.3454 29.8051C26.4908 29.7258 26.6734 29.7799 26.7526 29.9258C26.8631 30.13 29.528 34.8999 34.8541 32.6933C35.0073 32.6297 35.1833 32.703 35.2463 32.8561C35.31 33.0093 35.2367 33.1852 35.0836 33.2483C34.0187 33.6909 33.0463 33.8711 32.1713 33.8711Z" fill="#FCB35B"/>
  <path d="M34.3543 29.3157C32.5646 29.1535 27.9339 28.0725 26.4745 25.1235C26.4324 25.0274 26.3904 24.9374 26.3604 24.8533C26.3123 24.7332 26.2823 24.619 26.2703 24.5229L34.0961 26.2407L34.3543 29.3157Z" fill="black"/>
  <path d="M34.965 11.8436C34.965 11.8436 38.5626 19.6111 37.4244 24.0441C36.2863 28.477 32.2569 27.871 29.8364 27.0717C27.416 26.2723 26.2689 24.8236 26.2689 24.8236C26.2689 24.8236 24.0419 25.6332 22.4959 23.5798C20.95 21.5264 21.8214 19.1102 23.0905 18.5336C24.3596 17.9564 25.9031 18.8483 25.9031 18.8483L24.6593 16.5955C24.6593 16.5955 29.4298 4.90308 34.965 11.8436Z" fill="#FCA397"/>
  <path d="M25.5697 25.3566C26.0314 25.3566 26.4057 24.9823 26.4057 24.5206C26.4057 24.0589 26.0314 23.6846 25.5697 23.6846C25.108 23.6846 24.7336 24.0589 24.7336 24.5206C24.7336 24.9823 25.108 25.3566 25.5697 25.3566Z" fill="#7772D3"/>
  <path d="M32.4691 24.0666C32.3508 24.0666 32.227 24.0504 32.0991 24.0138C31.1075 23.7303 30.9958 22.5934 30.9916 22.5447C30.9832 22.4474 31.0222 22.3525 31.0967 22.2895C31.1712 22.2264 31.2715 22.2036 31.3664 22.2276L33.6949 22.8312C33.7922 22.8564 33.8703 22.9285 33.9033 23.0234C33.9363 23.1183 33.9195 23.2234 33.8589 23.3033C33.8312 23.3393 33.2685 24.0666 32.4691 24.0666ZM31.7183 22.9399C31.815 23.1429 31.9808 23.3555 32.2643 23.4366C32.546 23.5165 32.812 23.4108 33.0132 23.2751L31.7183 22.9399Z" fill="black"/>
  <path d="M25.9141 22.0874C25.8727 22.0874 25.8306 22.079 25.7898 22.0604L22.627 20.6225C22.4763 20.5541 22.4096 20.3757 22.4781 20.2249C22.546 20.0742 22.7237 20.0069 22.8757 20.076L26.0384 21.5132C26.1892 21.5817 26.2559 21.7601 26.1874 21.9108C26.1375 22.0219 26.0282 22.0874 25.9141 22.0874Z" fill="black"/>
  <path d="M23.0965 22.8187C23.019 22.8187 22.9415 22.7893 22.8833 22.7298C22.7668 22.6121 22.768 22.4217 22.8857 22.3052L24.2797 20.9275C24.398 20.8109 24.5878 20.8121 24.7043 20.9299C24.8208 21.0476 24.8196 21.238 24.7019 21.3545L23.3079 22.7322C23.249 22.7905 23.1728 22.8187 23.0965 22.8187Z" fill="black"/>
  <path d="M34.9184 21.4409C34.9082 21.4409 34.898 21.4403 34.8878 21.4391C34.7226 21.4223 34.6025 21.2751 34.6193 21.11C34.8656 18.6854 33.8608 17.4649 33.8505 17.4529C33.7436 17.3268 33.7586 17.1376 33.8848 17.0301C34.0103 16.9226 34.1989 16.937 34.307 17.0619C34.3556 17.1184 35.4908 18.4709 35.2175 21.17C35.2007 21.3256 35.0704 21.4409 34.9184 21.4409Z" fill="black"/>
  <path d="M30.399 15.7058C30.2819 15.7058 30.1708 15.6368 30.1221 15.5221C30.0579 15.3689 30.13 15.1929 30.2825 15.1287L32.0651 14.3797C32.2182 14.3149 32.3942 14.3875 32.4585 14.5401C32.5227 14.6932 32.4507 14.8692 32.2981 14.9335L30.5155 15.6824C30.4777 15.698 30.4381 15.7058 30.399 15.7058Z" fill="black"/>
  <path d="M36.1267 15.0702C36.1123 15.0702 36.0972 15.069 36.0822 15.0672L34.5465 14.8396C34.3825 14.8156 34.269 14.6624 34.2936 14.4985C34.3177 14.3345 34.4702 14.2252 34.6348 14.2456L36.1705 14.4732C36.3345 14.4973 36.448 14.6504 36.4234 14.8144C36.4012 14.9633 36.2732 15.0702 36.1267 15.0702Z" fill="black"/>
  <path d="M30.3988 12.3005C30.3988 12.3005 32.1994 12.0272 34.0787 13.1629C35.958 14.2987 36.3435 15.4055 36.3435 15.4055C36.3435 15.4055 37.5057 12.4734 34.9586 9.88548C32.4114 7.29811 27.5237 6.581 24.7069 9.64163C21.8895 12.7029 22.0619 15.405 22.0619 15.405L25.9033 18.847C25.9033 18.847 31.836 17.7052 30.3988 12.3005Z" fill="black"/>
  <path d="M35.8211 18.9382C35.6553 18.9382 35.5208 18.8037 35.5208 18.6379V17.259C35.5208 17.1803 35.552 17.1046 35.6072 17.0481L36.218 16.4289C36.3346 16.3106 36.5244 16.3094 36.6427 16.4259C36.761 16.5424 36.7622 16.7322 36.6457 16.8505L36.1214 17.3821V18.6379C36.1214 18.8037 35.9874 18.9382 35.8211 18.9382Z" fill="black"/>
  <path d="M31.29 18.9382C31.1243 18.9382 30.9897 18.8037 30.9897 18.6379V17.259C30.9897 17.1803 31.021 17.1046 31.0762 17.0481L31.6864 16.4289C31.8024 16.3106 31.9922 16.3094 32.1111 16.4259C32.2294 16.5424 32.2306 16.7322 32.1141 16.8505L31.5903 17.3821V18.6379C31.5903 18.8037 31.4564 18.9382 31.29 18.9382Z" fill="black"/>
  <path d="M24.0212 10.9547C24.0212 10.9547 20.3966 4.07129 16.7227 6.97997C13.0488 9.88865 17.1401 15.7601 20.7894 16.1883C24.4386 16.6165 24.0212 10.9547 24.0212 10.9547Z" fill="black"/>
</svg>