<svg viewBox="0 0 24 24" fill="none" xmlns="http://www.w3.org/2000/svg">
<g id="IconGroup02">
<path id="Vector" fill-rule="evenodd" clip-rule="evenodd" d="M14.7461 6.49609C14.7461 8.01609 15.9761 9.24609 17.4961 9.24609C19.0161 9.24609 20.2461 8.01609 20.2461 6.49609C20.2461 4.97609 19.0161 3.74609 17.4961 3.74609C15.9761 3.74609 14.7461 4.97609 14.7461 6.49609ZM16.2461 6.49609C16.2461 6.33188 16.2785 6.16928 16.3414 6.01759C16.4044 5.86589 16.4965 5.72808 16.6127 5.612C16.7289 5.49593 16.8667 5.40387 17.0185 5.34109C17.1702 5.27831 17.3329 5.24603 17.4971 5.24609C17.6613 5.24616 17.8239 5.27857 17.9756 5.34147C18.1273 5.40438 18.2651 5.49654 18.3812 5.61271C18.4972 5.72888 18.5893 5.86677 18.6521 6.01851C18.7149 6.17025 18.7471 6.33288 18.7471 6.49709C18.7471 6.82861 18.6154 7.14656 18.381 7.38098C18.1465 7.6154 17.8286 7.74709 17.4971 7.74709C17.1655 7.74709 16.8476 7.6154 16.6132 7.38098C16.3788 7.14656 16.2471 6.82861 16.2471 6.49709M8.74707 10.9971C8.74707 12.7871 10.2071 14.2471 11.9971 14.2471C13.7871 14.2471 15.2471 12.7871 15.2471 10.9971C15.2471 9.20709 13.7871 7.74709 11.9971 7.74709C10.2071 7.74709 8.74707 9.20709 8.74707 10.9971ZM10.2471 10.9971C10.2471 10.0371 11.0371 9.24709 11.9971 9.24709C12.9571 9.24709 13.7471 10.0371 13.7471 10.9971C13.7471 11.9571 12.9571 12.7471 11.9971 12.7471C11.0371 12.7471 10.2471 11.9571 10.2471 10.9971ZM15.7471 19.4971C15.7471 19.9071 16.0871 20.2471 16.4971 20.2471V20.2571C16.9071 20.2571 17.2471 19.9171 17.2471 19.5071C17.2471 18.1571 16.7071 17.0271 15.7771 16.3971C13.5271 14.8971 10.4671 14.8971 8.20707 16.3971C7.27707 17.0171 6.74707 18.1571 6.74707 19.4971C6.74707 19.9071 7.08707 20.2471 7.49707 20.2471C7.90707 20.2471 8.24707 19.8971 8.24707 19.4971C8.24707 19.0971 8.32707 18.1171 9.04707 17.6371C10.8071 16.4671 13.1971 16.4771 14.9471 17.6371C15.6671 18.1271 15.7471 19.0871 15.7471 19.4971ZM21.4971 15.1971C21.0871 15.1971 20.7471 14.9071 20.7471 14.4971C20.7471 13.9271 20.6571 13.0771 20.0371 12.6171C19.2771 12.0471 18.3971 11.7471 17.4971 11.7471C17.0871 11.7471 16.7471 11.4071 16.7471 10.9971C16.7471 10.5871 17.0871 10.2471 17.4971 10.2471C18.7271 10.2471 19.9171 10.6471 20.9471 11.4171C21.7871 12.0571 22.2471 13.1171 22.2471 14.3971C22.2471 14.8071 21.9071 15.1971 21.4971 15.1971ZM2.49707 15.1971C2.08707 15.1971 1.74707 14.9071 1.74707 14.4971C1.74707 13.1171 2.20707 12.0571 3.04707 11.4171C4.07707 10.6471 5.26707 10.2471 6.49707 10.2471C6.90707 10.2471 7.24707 10.5871 7.24707 10.9971C7.24707 11.4071 6.90707 11.7471 6.49707 11.7471C5.58707 11.7471 4.70707 12.0471 3.94707 12.6171C3.33707 13.0771 3.24707 13.9271 3.24707 14.3971C3.24707 14.8071 2.90707 15.1971 2.49707 15.1971ZM3.74707 6.49709C3.74707 8.01709 4.97707 9.24709 6.49707 9.24709C8.01707 9.24709 9.24707 8.01709 9.24707 6.49709C9.24707 4.97709 8.01707 3.74709 6.49707 3.74709C4.97707 3.74709 3.74707 4.97709 3.74707 6.49709ZM5.24707 6.49709C5.2472 6.16544 5.37908 5.84742 5.61369 5.613C5.72985 5.49693 5.86774 5.40487 6.01949 5.34209C6.17123 5.27931 6.33385 5.24703 6.49807 5.24709C6.66229 5.24716 6.82489 5.27957 6.97658 5.34247C7.12827 5.40538 7.26609 5.49754 7.38216 5.61371C7.49823 5.72988 7.59029 5.86777 7.65307 6.01951C7.71586 6.17125 7.74814 6.33388 7.74807 6.49809C7.74807 6.82961 7.61637 7.14756 7.38195 7.38198C7.14753 7.6164 6.82959 7.74809 6.49807 7.74809C6.16655 7.74809 5.84861 7.6164 5.61419 7.38198C5.37977 7.14756 5.24807 6.82961 5.24807 6.49809" fill="currentColor"/>
</g>
</svg>
