<svg xmlns="http://www.w3.org/2000/svg" width="20" height="20" viewBox="0 0 20 20" fill="none">
  <path d="M16.25 3.33333V7.5M18.3334 5.41667H14.1667M4.31669 12.7467C3.26835 13.3617 0.520855 14.6158 2.19419 16.185C3.01252 16.9517 3.92252 17.5 5.06752 17.5H11.5992C12.7442 17.5 13.655 16.9517 14.4717 16.185C16.1459 14.6158 13.3984 13.3608 12.35 12.7467C11.1296 12.0391 9.74401 11.6665 8.33335 11.6665C6.9227 11.6665 5.53708 12.0391 4.31669 12.7467ZM11.6667 5.83333C11.6667 6.71739 11.3155 7.56523 10.6904 8.19036C10.0653 8.81548 9.21741 9.16667 8.33335 9.16667C7.4493 9.16667 6.60145 8.81548 5.97633 8.19036C5.35121 7.56523 5.00002 6.71739 5.00002 5.83333C5.00002 4.94928 5.35121 4.10143 5.97633 3.47631C6.60145 2.85119 7.4493 2.5 8.33335 2.5C9.21741 2.5 10.0653 2.85119 10.6904 3.47631C11.3155 4.10143 11.6667 4.94928 11.6667 5.83333Z" stroke="black" stroke-width="1.5" stroke-linecap="round" stroke-linejoin="round"/>
</svg>