<svg xmlns="http://www.w3.org/2000/svg" width="20" height="20" viewBox="0 0 20 20" fill="none">
  <path fill-rule="evenodd" clip-rule="evenodd" d="M16.675 4.17533C16.6 4.16699 16.5 4.16699 16.3333 4.16699H16.1833M16.7417 4.17533C16.8 4.20033 16.85 4.25033 16.8667 4.30866V16.1087C16.8417 16.167 16.8 16.217 16.7417 16.242H16.6667C16.5917 16.2503 16.4917 16.2503 16.325 16.2503H16.15C16.15 16.2503 16.0917 16.2337 16.0583 16.2087C16.0583 16.217 16.0583 16.2087 16.0333 16.192C16.0083 16.167 15.9833 16.142 15.925 16.092L15.7833 15.9503C15.7833 15.9503 15.75 15.9087 15.725 15.892C15.1917 15.3587 14.85 15.017 14.4333 14.767H14.4167V14.7587C14 14.5087 13.5333 14.367 12.8167 14.1503C12.7927 14.1409 12.7674 14.1353 12.7417 14.1337L6.45 12.242V8.17533L12.7417 6.28366C12.7417 6.28366 12.7917 6.27533 12.8167 6.26699C13.5333 6.05033 14 5.90866 14.4167 5.65866H14.4333V5.65033C14.85 5.40033 15.1917 5.05866 15.725 4.52533L15.7833 4.46699L15.925 4.32533C15.975 4.27533 16.0083 4.25033 16.0333 4.22533M5.75 7.08366L12.3917 5.09199C13.2083 4.84199 13.5167 4.75033 13.7917 4.58366H13.8083C14.075 4.41699 14.3083 4.19199 14.9167 3.58366L15.0583 3.44199C15.0583 3.44199 15.075 3.44199 15.075 3.42533C15.1583 3.35033 15.2417 3.25866 15.3333 3.19199C15.5167 3.05866 15.725 2.97533 15.95 2.93366C16.0667 2.91699 16.1917 2.91699 16.3 2.91699H16.3917C16.6417 2.91699 16.9083 2.91699 17.1333 2.99199C17.5667 3.14199 17.9083 3.47533 18.05 3.90866C18.125 4.14199 18.125 4.40033 18.125 4.65033V15.767C18.125 16.017 18.125 16.2753 18.05 16.5087C17.9083 16.942 17.5667 17.2753 17.1333 17.4253C16.9 17.5003 16.6417 17.5003 16.3917 17.5003H16.3C16.1833 17.5003 16.0667 17.5003 15.95 17.4837C15.6105 17.4251 15.3016 17.2515 15.075 16.992C15.075 16.9837 15.0583 16.9753 15.0583 16.9753L14.9167 16.8337C14.3083 16.2253 14.0833 16.0003 13.8083 15.842H13.7917C13.525 15.667 13.2083 15.5753 12.3917 15.3253L11.1917 14.967L10.175 16.5003C9.90719 16.903 9.51681 17.2087 9.06169 17.3722C8.60656 17.5356 8.11088 17.5482 7.64807 17.4079C7.18526 17.2677 6.77992 16.9821 6.49209 16.5935C6.20426 16.2049 6.04925 15.7339 6.05 15.2503V13.4253L5.75 13.3337H4.98333C4.61667 13.3337 4.3 13.3337 4.05 13.317C3.78333 13.3003 3.53333 13.2587 3.29167 13.1587C2.73333 12.9253 2.28333 12.4837 2.05 11.917C1.95 11.6753 1.90833 11.4253 1.89167 11.167C1.875 10.9087 1.875 10.6003 1.875 10.2337V10.192C1.875 9.81699 1.875 9.50866 1.89167 9.25033C1.90833 8.99199 1.95 8.74199 2.05 8.50033C2.28333 7.93366 2.725 7.49199 3.29167 7.25866C3.53333 7.15866 3.78333 7.11699 4.05 7.10033C4.3 7.08366 4.61667 7.08366 4.98333 7.08366H5.75ZM5.21667 12.0837V8.33366H5.00833C4.60833 8.33366 4.34167 8.33366 4.14167 8.35033C3.94167 8.35866 3.84167 8.38366 3.775 8.41699C3.51667 8.51699 3.31667 8.72533 3.20833 8.97533C3.18333 9.04199 3.15833 9.14199 3.14167 9.34199C3.125 9.54199 3.125 9.80866 3.125 10.2087C3.125 10.6087 3.125 10.8753 3.14167 11.0753C3.15833 11.2753 3.18333 11.3753 3.20833 11.442C3.31667 11.692 3.51667 11.9003 3.775 12.0087C3.84167 12.0337 3.93333 12.0587 4.14167 12.067C4.35 12.0837 4.61667 12.0837 5.00833 12.0837H5.21667ZM7.3 13.8003V15.2503C7.3 15.8003 7.75 16.2503 8.3 16.2503C8.63333 16.2503 8.95 16.0837 9.13333 15.8003L9.94167 14.592L7.3 13.8003ZM16.0667 4.20866C16.0667 4.20866 16.125 4.17533 16.1583 4.16699L16.0667 4.20866Z" fill="black"/>
</svg>