<svg xmlns="http://www.w3.org/2000/svg" width="20" height="20" viewBox="0 0 24 24" fill="none">
  <path d="M15 11C16.0609 11 17.0783 10.5786 17.8284 9.82843C18.5786 9.07828 19 8.06087 19 7C19 5.93913 18.5786 4.92172 17.8284 4.17157C17.0783 3.42143 16.0609 3 15 3M17 14C18.3261 14 19.5979 14.5268 20.5355 15.4645C21.4732 16.4021 22 17.6739 22 19C22 19.5304 21.7893 20.0391 21.4142 20.4142C21.0391 20.7893 20.5304 21 20 21H18.5M13 7C13 8.06087 12.5786 9.07828 11.8284 9.82843C11.0783 10.5786 10.0609 11 9 11C7.93913 11 6.92172 10.5786 6.17157 9.82843C5.42143 9.07828 5 8.06087 5 7C5 5.93913 5.42143 4.92172 6.17157 4.17157C6.92172 3.42143 7.93913 3 9 3C10.0609 3 11.0783 3.42143 11.8284 4.17157C12.5786 4.92172 13 5.93913 13 7ZM11 14H7C5.67392 14 4.40215 14.5268 3.46447 15.4645C2.52678 16.4021 2 17.6739 2 19C2 19.5304 2.21071 20.0391 2.58579 20.4142C2.96086 20.7893 3.46957 21 4 21H14C14.5304 21 15.0391 20.7893 15.4142 20.4142C15.7893 20.0391 16 19.5304 16 19C16 17.6739 15.4732 16.4021 14.5355 15.4645C13.5979 14.5268 12.3261 14 11 14Z" stroke="#1A1A1A" stroke-width="1.5" stroke-linecap="round" stroke-linejoin="round"/>
</svg>