<svg viewBox="0 0 28 28" fill="none" xmlns="http://www.w3.org/2000/svg">
<path d="M24.871 8.33122L24.2946 7.33255C23.8595 6.57655 23.6413 6.19855 23.2703 6.04805C22.9005 5.89639 22.4816 6.01655 21.6428 6.25339L20.2195 6.65472C19.684 6.77839 19.1228 6.70839 18.6351 6.45639L18.242 6.23005C17.8231 5.96162 17.501 5.56633 17.3226 5.10189L16.933 3.93755C16.6763 3.16755 16.548 2.78255 16.2435 2.56322C15.939 2.34155 15.533 2.34155 14.7233 2.34155H13.4225C12.6128 2.34155 12.208 2.34155 11.9023 2.56322C11.5978 2.78255 11.4706 3.16755 11.214 3.93755L10.8243 5.10189C10.6457 5.5665 10.3231 5.96181 9.90379 6.23005L9.51063 6.45755C9.02296 6.70839 8.46063 6.77839 7.92629 6.65589L6.50296 6.25339C5.66413 6.01655 5.24529 5.89755 4.87546 6.04805C4.50446 6.19855 4.28629 6.57655 3.85113 7.33139L3.27596 8.33122C2.86763 9.04055 2.66346 9.39405 2.70313 9.77089C2.74279 10.1489 3.01579 10.4522 3.56179 11.0601L4.76463 12.4052C5.05863 12.7774 5.26746 13.4261 5.26746 14.0094C5.26746 14.5927 5.05863 15.2414 4.76579 15.6136L3.56179 16.9576C3.01579 17.5654 2.74279 17.8699 2.70313 18.2467C2.66346 18.6236 2.86646 18.9782 3.27479 19.6864L3.85113 20.6862C4.28629 21.4411 4.50446 21.8191 4.87546 21.9696C5.24646 22.1201 5.66413 22.0022 6.50296 21.7642L7.92629 21.3629C8.46166 21.2403 9.0231 21.3106 9.51179 21.5612L9.90379 21.7876C10.3238 22.0559 10.6458 22.4526 10.8231 22.9169L11.2128 24.0801C11.4695 24.8501 11.5978 25.2351 11.9023 25.4567C12.208 25.6761 12.6128 25.6761 13.4225 25.6761H14.7233C15.533 25.6761 15.939 25.6761 16.2435 25.4556C16.548 25.2351 16.6763 24.8501 16.9318 24.0801L17.3226 22.9169C17.5 22.4514 17.822 22.0559 18.242 21.7876L18.634 21.5612C19.124 21.3104 19.684 21.2392 20.2206 21.3629L21.644 21.7642C22.4816 22.0022 22.9005 22.1212 23.2703 21.9707C23.6413 21.8191 23.8595 21.4411 24.2946 20.6862L24.8698 19.6864C25.2781 18.9782 25.4823 18.6247 25.4426 18.2467C25.403 17.8687 25.13 17.5654 24.584 16.9576L23.3811 15.6136C23.0871 15.2402 22.8783 14.5927 22.8783 14.0094C22.8783 13.4261 23.0871 12.7774 23.38 12.4052L24.584 11.0601C25.13 10.4534 25.403 10.1489 25.4426 9.77089C25.4823 9.39289 25.2793 9.04055 24.871 8.33122Z" stroke="#1A1A1A" stroke-width="1.5" stroke-linecap="round" stroke-linejoin="round"/>
<path d="M18.1066 14.0001C18.1066 15.083 17.6764 16.1217 16.9106 16.8874C16.1449 17.6532 15.1062 18.0834 14.0233 18.0834C12.9403 18.0834 11.9017 17.6532 11.1359 16.8874C10.3701 16.1217 9.93994 15.083 9.93994 14.0001C9.93994 12.9171 10.3701 11.8785 11.1359 11.1127C11.9017 10.347 12.9403 9.91675 14.0233 9.91675C15.1062 9.91675 16.1449 10.347 16.9106 11.1127C17.6764 11.8785 18.1066 12.9171 18.1066 14.0001Z" stroke="#1A1A1A" stroke-width="1.5" stroke-linecap="round" stroke-linejoin="round"/>
</svg>
