<svg viewBox="0 0 26 25" fill="none" xmlns="http://www.w3.org/2000/svg">
<g id="Group">
<path id="Vector" d="M22.7918 7.37069L20.7537 5.60085C19.2848 4.32569 18.7097 3.63969 17.914 3.88119C16.9223 4.18452 17.249 6.09202 17.249 6.73602C15.7078 6.73602 14.1048 6.61819 12.5847 6.86435C7.568 7.68102 6 11.2499 6 15.0952C7.41983 14.2237 8.8385 13.2542 10.5442 12.8505C12.6745 12.3465 15.0533 12.5869 17.249 12.5869C17.249 13.2309 16.9223 15.1395 17.914 15.4417C18.8147 15.717 19.2848 14.9984 20.7537 13.7232L22.7918 11.9534C24.0413 10.8684 24.6667 10.3247 24.6667 9.66202C24.6667 8.99935 24.0413 8.45569 22.7918 7.37069Z" stroke="currentColor" stroke-width="1.5" stroke-linecap="round" stroke-linejoin="round"/>
<path id="Vector_2" d="M11.3295 1.5C6.82616 1.50817 4.46716 1.619 2.95983 3.12167C1.3335 4.74683 1.3335 7.359 1.3335 12.5833C1.3335 17.8077 1.3335 20.4198 2.95983 22.0438C4.58616 23.6667 7.20416 23.6667 12.4402 23.6667C17.6762 23.6667 20.2918 23.6667 21.9193 22.0438C23.051 20.9133 23.3952 19.3033 23.5002 16.6667" stroke="currentColor" stroke-width="1.5" stroke-linecap="round" stroke-linejoin="round"/>
</g>
</svg>
