<svg xmlns="http://www.w3.org/2000/svg" width="20" height="20" viewBox="0 0 20 20" fill="none">
  <path d="M14.1667 9.83748C14.1667 9.54915 14.1667 9.40498 14.21 9.27665C14.3359 8.90331 14.6684 8.75915 15.0017 8.60748C15.375 8.43665 15.5617 8.35165 15.7475 8.33665C15.9575 8.31998 16.1684 8.36498 16.3484 8.46581C16.5867 8.59915 16.7534 8.85415 16.9234 9.06081C17.7092 10.0158 18.1025 10.4933 18.2459 11.0191C18.3625 11.4441 18.3625 11.8891 18.2459 12.3133C18.0367 13.0816 17.3742 13.725 16.8834 14.3216C16.6325 14.6258 16.5067 14.7783 16.3484 14.8675C16.1653 14.969 15.9562 15.014 15.7475 14.9966C15.5617 14.9816 15.375 14.8966 15.0009 14.7258C14.6675 14.5741 14.3359 14.43 14.21 14.0566C14.1667 13.9283 14.1667 13.7841 14.1667 13.4966V9.83748ZM5.83338 9.83748C5.83338 9.47415 5.82338 9.14831 5.53005 8.89331C5.42338 8.80081 5.28171 8.73665 4.99921 8.60748C4.62505 8.43748 4.43838 8.35165 4.25255 8.33665C3.69671 8.29165 3.39755 8.67165 3.07755 9.06165C2.29088 10.0158 1.89755 10.4933 1.75338 11.02C1.63738 11.4436 1.63738 11.8906 1.75338 12.3141C1.96338 13.0816 2.62671 13.7258 3.11671 14.3216C3.42588 14.6966 3.72171 15.0391 4.25255 14.9966C4.43838 14.9816 4.62505 14.8966 4.99921 14.7258C5.28255 14.5975 5.42338 14.5325 5.53005 14.44C5.82338 14.185 5.83338 13.8591 5.83338 13.4966V9.83748Z" stroke="black" stroke-width="1.5" stroke-linecap="round" stroke-linejoin="round"/>
  <path d="M16.6667 8.75033V7.50033C16.6667 4.27866 13.6817 1.66699 10 1.66699C6.31837 1.66699 3.33337 4.27866 3.33337 7.50033V8.75033M16.6667 14.5837C16.6667 18.3337 13.3334 18.3337 10 18.3337" stroke="black" stroke-width="1.5" stroke-linecap="round" stroke-linejoin="round"/>
</svg>