<svg xmlns="http://www.w3.org/2000/svg" width="16" height="20" viewBox="0 0 16 20" fill="none">
  <path d="M3.83337 15.0003C2.30921 15.3437 1.33337 15.8703 1.33337 16.462C1.33337 17.4953 4.31837 18.3337 8.00004 18.3337C11.6817 18.3337 14.6667 17.4953 14.6667 16.462C14.6667 15.8703 13.6909 15.3437 12.1667 15.0003M10.0834 7.50033C10.0834 8.05286 9.86388 8.58276 9.47318 8.97347C9.08248 9.36417 8.55257 9.58366 8.00004 9.58366C7.44751 9.58366 6.9176 9.36417 6.5269 8.97347C6.1362 8.58276 5.91671 8.05286 5.91671 7.50033C5.91671 6.94779 6.1362 6.41789 6.5269 6.02719C6.9176 5.63649 7.44751 5.41699 8.00004 5.41699C8.55257 5.41699 9.08248 5.63649 9.47318 6.02719C9.86388 6.41789 10.0834 6.94779 10.0834 7.50033Z" stroke="#1A1A1A" stroke-width="1.5" stroke-linecap="round" stroke-linejoin="round"/>
  <path d="M9.04749 14.5787C8.76602 14.8495 8.39059 15.0007 7.99999 15.0007C7.60939 15.0007 7.23397 14.8495 6.95249 14.5787C4.37833 12.0845 0.92916 9.29866 2.61083 5.25366C3.52166 3.06616 5.70499 1.66699 7.99999 1.66699C10.295 1.66699 12.4792 3.06699 13.3892 5.25366C15.0692 9.29283 11.6283 12.0928 9.04749 14.5787Z" stroke="#1A1A1A" stroke-width="1.5" stroke-linecap="round" stroke-linejoin="round"/>
</svg>