<svg xmlns="http://www.w3.org/2000/svg" width="24" height="26" viewBox="0 0 24 26" fill="none">
  <path d="M4.01767 12.406C3.9325 14.0347 4.0305 15.7684 2.57567 16.8592C2.24119 17.1095 1.96977 17.4344 1.78303 17.8081C1.59628 18.1818 1.49937 18.5939 1.5 19.0117C1.5 20.1749 2.41234 21.1665 3.6 21.1665H20.4C21.5877 21.1665 22.5 20.1749 22.5 19.0117C22.5 18.1647 22.101 17.3667 21.4243 16.8592C19.9695 15.7684 20.0675 14.0347 19.9823 12.406C19.8773 10.3598 18.9906 8.43201 17.5051 7.02081C16.0196 5.6096 14.0489 4.82275 12 4.82275C9.95108 4.82275 7.98039 5.6096 6.49492 7.02081C5.00946 8.43201 4.12266 10.3598 4.01767 12.406Z" stroke="#1A1A1A" stroke-width="1.5" stroke-linecap="round" stroke-linejoin="round"/>
  <path d="M15.5 21.1666C15.5 22.0948 15.1313 22.9851 14.4749 23.6415C13.8185 24.2978 12.9283 24.6666 12 24.6666C11.0717 24.6666 10.1815 24.2978 9.52513 23.6415C8.86875 22.9851 8.5 22.0948 8.5 21.1666M10.25 2.64575C10.25 3.61175 11.034 4.83325 12 4.83325C12.966 4.83325 13.75 3.61175 13.75 2.64575C13.75 1.67975 12.966 1.33325 12 1.33325C11.034 1.33325 10.25 1.67975 10.25 2.64575Z" stroke="#1A1A1A" stroke-width="1.5" stroke-linecap="round" stroke-linejoin="round"/>
</svg>