<svg xmlns="http://www.w3.org/2000/svg" width="20" height="20" viewBox="0 0 20 20" fill="none">
  <path fill-rule="evenodd" clip-rule="evenodd" d="M10.365 1.04004C13.9234 1.04004 16.8234 3.94004 16.8234 7.49837C16.8234 9.56504 15.84 11.4067 14.3234 12.59V17.09C14.3234 17.9484 14.3234 18.5734 13.7484 18.8567C13.6067 18.9234 13.4734 18.9567 13.34 18.9567C12.9234 18.9567 12.515 18.6567 11.9984 18.265L10.99 17.5067L10.9142 17.4509C10.6784 17.275 10.4392 17.0975 10.3642 17.09C10.2892 17.0984 10.0509 17.275 9.81505 17.4509L9.74005 17.5067L8.74005 18.2567L8.71755 18.2734C8.03755 18.7817 7.55088 19.145 6.98088 18.8567C6.40588 18.5734 6.40588 17.9484 6.40588 17.09V12.59C4.88922 11.4067 3.90588 9.56504 3.90588 7.49837C3.90588 3.94004 6.80672 1.04004 10.365 1.04004ZM10.3642 2.29004C7.48922 2.29004 5.15588 4.62337 5.15588 7.49837C5.15588 10.3734 7.48922 12.7067 10.3642 12.7067C13.2392 12.7067 15.5725 10.3734 15.5725 7.49837C15.5725 4.62337 13.2392 2.29004 10.3642 2.29004ZM13.0725 17.0984V13.3567C12.2243 13.7516 11.2999 13.9563 10.3642 13.9563C9.42852 13.9563 8.50415 13.7516 7.65588 13.3567V17.515L7.77838 17.4242C7.84616 17.3748 7.91338 17.3245 7.98005 17.2734L8.98838 16.515C9.52172 16.115 9.88005 15.8484 10.3634 15.8484C10.8467 15.8484 11.205 16.115 11.7384 16.515L12.7384 17.265C12.8551 17.3484 12.9717 17.4317 13.0717 17.5067L13.0725 17.0984ZM7.83088 9.52337L8.03922 8.12337H8.07255L7.11422 7.12337C6.86422 6.86504 6.78088 6.49837 6.89755 6.1567C7.00588 5.82337 7.28922 5.58171 7.63088 5.52337L8.93922 5.3067L9.54755 4.05671C9.70588 3.73171 10.0309 3.53171 10.3809 3.53171C10.7309 3.53171 11.0559 3.73171 11.2142 4.05671L11.8225 5.3067L13.1309 5.52337C13.4725 5.58171 13.7559 5.82337 13.8642 6.1567C13.9725 6.49837 13.8892 6.86504 13.6475 7.12337L12.6892 8.12337L12.8976 9.52337C12.9476 9.89004 12.7975 10.24 12.5059 10.4484C12.2225 10.6484 11.8475 10.6734 11.5392 10.5067L10.3642 9.8817L9.18922 10.5067C9.05588 10.5817 8.90588 10.615 8.75588 10.615C8.57255 10.615 8.38088 10.565 8.22255 10.4484C7.92255 10.24 7.78088 9.88171 7.83088 9.52337ZM9.97255 5.99837C9.83922 6.27337 9.58088 6.46504 9.28922 6.51504L8.38088 6.66504L9.04755 7.36504C9.24755 7.57337 9.33922 7.87337 9.29755 8.16504L9.15588 9.10671L9.93088 8.69837C10.0642 8.62337 10.2142 8.59004 10.3642 8.59004C10.5142 8.59004 10.6642 8.62337 10.7976 8.69837L11.5726 9.10671L11.4309 8.16504C11.3892 7.87337 11.4809 7.57337 11.6809 7.36504L12.3476 6.66504L11.4392 6.51504C11.2926 6.48909 11.1542 6.42873 11.0354 6.33891C10.9166 6.2491 10.8208 6.13239 10.7559 5.99837L10.3642 5.19004L9.97255 5.99837Z" fill="#1A1A1A"/>
</svg>