<svg viewBox="0 0 18 22" fill="none" xmlns="http://www.w3.org/2000/svg">
<g id="Group">
<path id="Vector" d="M1.5 13.5C1.5 11.5109 2.29018 9.60322 3.6967 8.1967C5.10322 6.79018 7.01088 6 9 6C10.9891 6 12.8968 6.79018 14.3033 8.1967C15.7098 9.60322 16.5 11.5109 16.5 13.5C16.5 15.4891 15.7098 17.3968 14.3033 18.8033C12.8968 20.2098 10.9891 21 9 21C7.01088 21 5.10322 20.2098 3.6967 18.8033C2.29018 17.3968 1.5 15.4891 1.5 13.5Z" stroke="currentColor" stroke-width="1.5" stroke-linecap="round" stroke-linejoin="round"/>
<path id="Vector_2" d="M10.56 1L7.999 6M14.999 1L12.178 6.602M7.44 1L9 3.594M3 1L5.821 6.5M6 13.5C6 11.843 7.295 10.5 8.893 10.5H9.107C10.705 10.5 12 11.843 12 13.5C12 15.157 10.705 16.5 9.107 16.5H8.893C7.295 16.5 6 15.157 6 13.5Z" stroke="currentColor" stroke-width="1.5" stroke-linecap="round" stroke-linejoin="round"/>
</g>
</svg>
