<svg viewBox="0 0 22 22" fill="none" xmlns="http://www.w3.org/2000/svg">
<g id="Group">
<path id="Vector" d="M11 21C16.5228 21 21 16.5228 21 11C21 5.47715 16.5228 1 11 1C5.47715 1 1 5.47715 1 11C1 16.5228 5.47715 21 11 21Z" stroke="currentColor" stroke-width="1.5" stroke-linecap="round" stroke-linejoin="round"/>
<path id="Vector_2" d="M6.5 16C8.832 13.558 13.143 13.443 15.5 16M13.495 8.5C13.495 9.88 12.375 11 10.992 11C10.6634 11.0005 10.3378 10.9363 10.0341 10.8109C9.73029 10.6854 9.45422 10.5014 9.22165 10.2692C8.98908 10.037 8.80457 9.76121 8.67868 9.45763C8.5528 9.15406 8.488 8.82864 8.488 8.5C8.488 7.12 9.608 6 10.992 6C11.3206 5.99961 11.646 6.06398 11.9496 6.18944C12.2533 6.3149 12.5292 6.49899 12.7617 6.73117C12.9942 6.96336 13.1786 7.23909 13.3044 7.5426C13.4302 7.84611 13.495 8.17144 13.495 8.5Z" stroke="currentColor" stroke-width="1.5" stroke-linecap="round" stroke-linejoin="round"/>
</g>
</svg>
