<svg width="75" height="90" viewBox="0 0 80 97" fill="none" xmlns="http://www.w3.org/2000/svg">
<g id="Group 4405">
<g id="Group">
<path id="Vector" d="M80 56.4901C80 60.6686 79.3651 64.7012 78.1725 68.485C76.3535 74.2679 73.2647 79.4845 69.2235 83.8002C69.1377 83.9032 69.0519 83.9976 68.9575 84.0919L68.8546 84.1949C68.7688 84.2893 68.6744 84.3837 68.5886 84.4695C66.1862 86.9233 63.4663 89.0769 60.4891 90.8444C54.5002 94.4308 47.4903 96.49 40 96.49C38.4728 96.49 36.9541 96.4042 35.4698 96.2412C35.2638 96.2241 35.0665 96.1983 34.8692 96.1726C34.852 96.164 34.8434 96.164 34.8263 96.164C32.9301 95.9152 31.0768 95.5377 29.275 95.0314C27.1557 94.448 25.1051 93.6844 23.1489 92.7749C22.8486 92.6376 22.5483 92.4918 22.248 92.3459C20.3175 91.3935 18.4813 90.2867 16.7568 89.0426C15.0236 87.8071 13.3934 86.4343 11.8833 84.9328C10.2617 83.3369 8.77735 81.5866 7.45603 79.7333C7.12999 79.27 6.80395 78.8067 6.49507 78.3262C5.72287 77.1593 5.0193 75.9496 4.38438 74.7055C1.57872 69.24 0 63.0538 0 56.4901C0 34.3967 17.9065 16.4902 40 16.4902C62.0935 16.4902 80 34.3967 80 56.4901Z" fill="#EDDDD6"/>
<path id="Vector_2" d="M31.381 38.2235C31.381 38.2235 17.743 43.4392 17.0472 58.8746C16.0416 81.1852 42.7795 76.0123 42.7795 76.0123C42.7795 76.0123 57.9232 77.5833 62.112 66.4199C66.3007 55.2564 52.8361 48.5169 52.8361 48.5169C52.8361 48.5169 36.511 34.142 31.381 38.2235Z" fill="black"/>
<path id="Vector_3" d="M68.8541 84.1951C68.7683 84.2895 68.6739 84.3839 68.5881 84.4697C66.2972 86.8034 63.7232 88.8712 60.909 90.5872C60.7717 90.673 60.6258 90.7588 60.4886 90.8446C60.3084 90.9561 60.1196 91.0677 59.9309 91.1706C54.0707 94.5597 47.2582 96.4902 39.9995 96.4902C38.4723 96.4902 36.9536 96.4044 35.4693 96.2414C35.2633 96.2242 35.066 96.1985 34.8687 96.1728C34.8515 96.1642 34.8429 96.1642 34.8258 96.1642C32.9296 95.9154 31.0763 95.5378 29.2745 95.0316C27.1552 94.4482 25.1046 93.6846 23.1484 92.7751C22.8481 92.6378 22.5478 92.492 22.2475 92.3461C20.317 91.3937 18.4808 90.2869 16.7563 89.0428C15.0231 87.8073 13.3929 86.4345 11.8828 84.933C14.7829 76.9107 22.2046 61.9558 37.7687 59.5191C37.803 59.5191 37.8373 59.5105 37.8717 59.5019C38.9098 59.3475 39.9909 59.2445 41.1063 59.2016C58.661 58.5581 66.0999 75.0917 68.8541 84.1951Z" fill="#7C6053"/>
<path id="Vector_4" d="M60.4891 90.844C54.5003 94.4304 47.4904 96.4896 40.0001 96.4896C38.4728 96.4896 36.9542 96.4038 35.4698 96.2408C35.2639 96.2236 35.0666 96.1979 34.8692 96.1721C34.8521 96.1636 34.8435 96.1636 34.8263 96.1636C32.9302 95.9148 31.0769 95.5372 29.2751 95.031C27.1558 94.4476 25.1052 93.684 23.1489 92.7745C22.8486 92.6372 22.5483 92.4913 22.248 92.3455C20.3175 91.3931 18.4814 90.2863 16.7568 89.0422C16.6796 83.1477 16.6367 78.4974 16.6367 78.4974L31.8748 67.1889L39.3566 61.6377C39.451 61.6377 39.5453 61.6377 39.6397 61.6463C43.7581 61.7321 47.233 62.5729 49.9701 63.5854C50.4076 63.757 50.8281 63.92 51.2313 64.0916C55.0323 65.7046 57.0915 67.515 57.0915 67.515C57.0915 67.515 58.8761 79.3382 60.4891 90.844Z" fill="#7C6053"/>
<path id="Vector_5" d="M60.9096 90.5863C60.7723 90.6721 60.6265 90.7579 60.4892 90.8437C60.309 90.9552 60.1202 91.0668 59.9315 91.1697C61.7934 81.4486 57.9838 75.8802 57.9409 75.8201C57.8036 75.6228 57.838 75.3397 58.0267 75.1938C58.2241 75.0479 58.49 75.0908 58.6273 75.2882C58.7989 75.5284 62.5227 80.9338 60.9096 90.5863Z" fill="#FCB35B"/>
<path id="Vector_6" d="M49.5158 63.6378C49.5158 63.6378 48.2374 64.6588 44.5136 64.5044C39.5115 64.2985 37.907 61.5872 37.907 61.5872L37.6582 51.9948V51.9004L39.1769 52.2007L48.7093 53.9767L49.0782 58.3697L49.5158 63.6378Z" fill="#FCA397"/>
<path id="Vector_7" d="M35.4702 96.241C35.2642 96.2238 35.0669 96.1981 34.8696 96.1723C34.8524 96.1638 34.8438 96.1638 34.8267 96.1638C32.9305 95.9149 31.0772 95.5374 29.2754 95.0312L31.8751 67.1891L31.9609 66.3054L37.7696 59.5186L37.8382 59.4414C37.8382 59.4414 37.8468 59.4586 37.8726 59.5015C38.0184 59.7331 38.619 60.6598 39.64 61.6465C41.5963 63.5426 45.1141 65.6791 49.9532 63.5941C50.7512 63.2509 51.1458 63.4568 51.2316 64.0918C51.6778 67.5924 42.4285 84.2805 35.4702 96.241Z" fill="#7C6053"/>
<path id="Vector_8" d="M45.9587 64.8765C40.3636 64.8765 37.4971 59.713 37.4627 59.6487C37.3503 59.441 37.4276 59.1802 37.6361 59.0678C37.8437 58.9545 38.1045 59.0318 38.2178 59.2403C38.3756 59.532 42.1826 66.3462 49.7914 63.1939C50.0101 63.103 50.2615 63.2077 50.3516 63.4264C50.4426 63.6452 50.3379 63.8966 50.1191 63.9867C48.5979 64.6191 47.2088 64.8765 45.9587 64.8765Z" fill="#FCB35B"/>
<path id="Vector_9" d="M49.078 58.3683C46.5211 58.1367 39.906 56.5923 37.821 52.3795C37.761 52.2422 37.7009 52.1135 37.658 51.9934C37.5894 51.8218 37.5465 51.6588 37.5293 51.5215L48.709 53.9754L49.078 58.3683Z" fill="black"/>
<path id="Vector_10" d="M49.95 33.4079C49.95 33.4079 55.0894 44.5044 53.4635 50.8373C51.8376 57.1702 46.0812 56.3045 42.6235 55.1625C39.1658 54.0205 37.527 51.951 37.527 51.951C37.527 51.951 34.3455 53.1076 32.137 50.1741C29.9285 47.2406 31.1735 43.7889 32.9864 42.9652C34.7994 42.1407 37.0045 43.4148 37.0045 43.4148L35.2275 40.1964C35.2275 40.1964 42.0426 23.4929 49.95 33.4079Z" fill="#FCA397"/>
<path id="Vector_11" d="M36.5283 52.7146C37.1879 52.7146 37.7227 52.1799 37.7227 51.5203C37.7227 50.8606 37.1879 50.3259 36.5283 50.3259C35.8687 50.3259 35.334 50.8606 35.334 51.5203C35.334 52.1799 35.8687 52.7146 36.5283 52.7146Z" fill="#7772D3"/>
<path id="Vector_12" d="M46.3848 50.87C46.2157 50.87 46.039 50.8469 45.8562 50.7945C44.4397 50.3896 44.2801 48.7654 44.2741 48.6959C44.2621 48.5569 44.3178 48.4213 44.4242 48.3312C44.5306 48.2411 44.6739 48.2085 44.8095 48.2429L48.1359 49.1051C48.2749 49.1412 48.3865 49.2441 48.4337 49.3797C48.4808 49.5153 48.4568 49.6654 48.3702 49.7795C48.3307 49.831 47.5268 50.87 46.3848 50.87ZM45.3123 49.2604C45.4504 49.5505 45.6872 49.8542 46.0922 49.97C46.4946 50.0841 46.8747 49.9331 47.1621 49.7392L45.3123 49.2604Z" fill="black"/>
<path id="Vector_13" d="M37.0203 48.0443C36.9611 48.0443 36.9011 48.0323 36.8427 48.0057L32.3245 45.9517C32.1091 45.8539 32.0139 45.599 32.1117 45.3837C32.2086 45.1683 32.4626 45.0722 32.6797 45.1709L37.1979 47.2241C37.4133 47.3219 37.5085 47.5767 37.4107 47.7921C37.3395 47.9508 37.1833 48.0443 37.0203 48.0443Z" fill="black"/>
<path id="Vector_14" d="M32.9948 49.0873C32.8841 49.0873 32.7734 49.0453 32.6902 48.9603C32.5237 48.7922 32.5254 48.5202 32.6936 48.3537L34.685 46.3855C34.8541 46.219 35.1252 46.2208 35.2916 46.3889C35.4581 46.5571 35.4564 46.8291 35.2882 46.9955L33.2968 48.9638C33.2127 49.047 33.1037 49.0873 32.9948 49.0873Z" fill="black"/>
<path id="Vector_15" d="M49.8832 47.1207C49.8686 47.1207 49.854 47.1198 49.8394 47.1181C49.6035 47.0941 49.4319 46.8839 49.4559 46.6479C49.8077 43.1842 48.3722 41.4408 48.3576 41.4236C48.2049 41.2434 48.2264 40.9731 48.4065 40.8196C48.5859 40.666 48.8553 40.6866 49.0097 40.865C49.0792 40.9457 50.7008 42.8779 50.3104 46.7338C50.2864 46.956 50.1002 47.1207 49.8832 47.1207Z" fill="black"/>
<path id="Vector_16" d="M43.4272 38.9265C43.2599 38.9265 43.1011 38.8278 43.0316 38.6639C42.9398 38.4451 43.0428 38.1937 43.2607 38.1019L45.8073 37.032C46.0261 36.9393 46.2774 37.0431 46.3693 37.2611C46.4611 37.4799 46.3581 37.7313 46.1402 37.8231L43.5936 38.893C43.5396 38.9153 43.4829 38.9265 43.4272 38.9265Z" fill="black"/>
<path id="Vector_17" d="M51.6097 38.0194C51.5892 38.0194 51.5677 38.0177 51.5463 38.0151L49.3523 37.6899C49.1181 37.6556 48.9559 37.4368 48.9911 37.2026C49.0254 36.9684 49.2434 36.8122 49.4785 36.8414L51.6724 37.1666C51.9066 37.2009 52.0688 37.4197 52.0336 37.6539C52.0019 37.8667 51.8191 38.0194 51.6097 38.0194Z" fill="black"/>
<path id="Vector_18" d="M43.4265 34.0613C43.4265 34.0613 45.9988 33.6709 48.6835 35.2934C51.3682 36.9158 51.919 38.4971 51.919 38.4971C51.919 38.4971 53.5792 34.3084 49.9405 30.6112C46.3017 26.915 39.3193 25.8905 35.2952 30.2629C31.2704 34.6361 31.5166 38.4963 31.5166 38.4963L37.0044 43.4135C37.0044 43.4135 45.4797 41.7824 43.4265 34.0613Z" fill="black"/>
<path id="Vector_19" d="M51.1731 43.5437C50.9363 43.5437 50.7441 43.3516 50.7441 43.1147V41.1448C50.7441 41.0324 50.7888 40.9243 50.8677 40.8436L51.7403 39.959C51.9067 39.79 52.1779 39.7883 52.3469 39.9547C52.5159 40.1212 52.5176 40.3923 52.3512 40.5613L51.6021 41.3207V43.1147C51.6021 43.3516 51.4108 43.5437 51.1731 43.5437Z" fill="black"/>
<path id="Vector_20" d="M44.6995 43.5437C44.4627 43.5437 44.2705 43.3516 44.2705 43.1147V41.1448C44.2705 41.0324 44.3151 40.9243 44.3941 40.8436L45.2658 39.959C45.4314 39.79 45.7025 39.7883 45.8724 39.9547C46.0414 40.1212 46.0431 40.3923 45.8767 40.5613L45.1285 41.3207V43.1147C45.1285 43.3516 44.9372 43.5437 44.6995 43.5437Z" fill="black"/>
<path id="Vector_21" d="M34.3166 32.1395C34.3166 32.1395 29.1385 22.306 23.8901 26.4612C18.6417 30.6165 24.4864 39.0043 29.6997 39.6161C34.9129 40.2278 34.3166 32.1395 34.3166 32.1395Z" fill="black"/>
</g>
<path id="Vector_22" d="M30.2861 16C29.8603 12.1742 29.4345 8.34844 29.0087 4.52261C28.9142 3.67452 29.6123 3.0961 30.1089 3.61095C31.4356 4.98628 32.7621 6.3615 34.0888 7.73683C34.5256 8.18966 35.1479 8.0423 35.4507 7.41433L38.764 0.544484C39.1141 -0.181495 39.8858 -0.181495 40.236 0.544484L43.5493 7.41433C43.8521 8.0423 44.4744 8.18956 44.9112 7.73683C46.2378 6.3615 47.5644 4.98628 48.891 3.61095C49.3876 3.0961 50.0857 3.67452 49.9914 4.52261C49.5655 8.34844 49.1397 12.1742 48.7139 16C48.7139 16 40 12.9902 30.2861 16Z" fill="#B0B0B0"/>
</g>
</svg>
