<svg width="90" height="119" viewBox="0 0 96 119" fill="none" xmlns="http://www.w3.org/2000/svg">
<g id="Group 4404">
<g id="Group">
<path id="Vector" d="M96 70.49C96 75.5041 95.2381 80.3433 93.807 84.8838C91.6242 91.8233 87.9176 98.0832 83.0682 103.262C82.9652 103.386 82.8623 103.499 82.749 103.612L82.6255 103.736C82.5225 103.849 82.4093 103.962 82.3063 104.065C79.4234 107.01 76.1596 109.594 72.5869 111.715C65.4003 116.019 56.9884 118.49 48 118.49C46.1673 118.49 44.3449 118.387 42.5637 118.191C42.3166 118.171 42.0798 118.14 41.843 118.109C41.8224 118.099 41.8121 118.099 41.7915 118.099C39.5161 117.8 37.2922 117.347 35.13 116.739C32.5869 116.039 30.1261 115.123 27.7786 114.032C27.4183 113.867 27.0579 113.692 26.6976 113.517C24.381 112.374 22.1776 111.046 20.1081 109.553C18.0283 108.07 16.0721 106.423 14.26 104.621C12.314 102.706 10.5328 100.606 8.94723 98.3818C8.55598 97.8258 8.16474 97.2698 7.79408 96.6932C6.86744 95.293 6.02316 93.8413 5.26126 92.3484C1.89446 85.7898 0 78.3664 0 70.49C0 43.9779 21.4878 22.4902 48 22.4902C74.5122 22.4902 96 43.9779 96 70.49Z" fill="#EDDDD6"/>
<path id="Vector_2" d="M37.6575 48.5705C37.6575 48.5705 21.292 54.8295 20.457 73.3519C19.2503 100.124 51.3358 93.9171 51.3358 93.9171C51.3358 93.9171 69.5083 95.8022 74.5348 82.4062C79.5613 69.0101 63.4038 60.9226 63.4038 60.9226C63.4038 60.9226 43.8135 43.6728 37.6575 48.5705Z" fill="black"/>
<path id="Vector_3" d="M82.6253 103.736C82.5223 103.849 82.409 103.963 82.3061 104.066C79.5571 106.866 76.4683 109.348 73.0912 111.407C72.9264 111.51 72.7514 111.613 72.5867 111.716C72.3704 111.849 72.1439 111.983 71.9174 112.107C64.8853 116.174 56.7102 118.49 47.9998 118.49C46.1671 118.49 44.3447 118.387 42.5635 118.192C42.3164 118.171 42.0796 118.14 41.8428 118.109C41.8222 118.099 41.8119 118.099 41.7913 118.099C39.5159 117.8 37.2919 117.347 35.1298 116.74C32.5867 116.04 30.1259 115.124 27.7784 114.032C27.4181 113.867 27.0577 113.692 26.6973 113.517C24.3807 112.375 22.1774 111.046 20.1079 109.553C18.0281 108.071 16.0719 106.423 14.2598 104.622C17.7398 94.9949 26.6459 77.0491 45.3228 74.125C45.364 74.125 45.4052 74.1147 45.4464 74.1044C46.6922 73.9191 47.9895 73.7955 49.328 73.7441C70.3936 72.9719 79.3202 92.8122 82.6253 103.736Z" fill="#7C6053"/>
<path id="Vector_4" d="M72.5868 111.714C65.4002 116.018 56.9883 118.489 47.9999 118.489C46.1672 118.489 44.3448 118.386 42.5636 118.191C42.3165 118.17 42.0797 118.139 41.8429 118.108C41.8223 118.098 41.812 118.098 41.7914 118.098C39.516 117.799 37.2921 117.346 35.1299 116.739C32.5868 116.039 30.126 115.122 27.7785 114.031C27.4182 113.866 27.0578 113.691 26.6975 113.516C24.3809 112.373 22.1775 111.045 20.108 109.552C20.0153 102.479 19.9639 96.8986 19.9639 96.8986L38.2496 83.3285L47.2277 76.667C47.341 76.667 47.4542 76.667 47.5675 76.6773C52.5096 76.7803 56.6794 77.7893 59.9639 79.0042C60.489 79.2101 60.9935 79.4057 61.4774 79.6116C66.0385 81.5473 68.5096 83.7197 68.5096 83.7197C68.5096 83.7197 70.6511 97.9076 72.5868 111.714Z" fill="#7C6053"/>
<path id="Vector_5" d="M73.0913 111.406C72.9266 111.509 72.7516 111.612 72.5868 111.715C72.3706 111.848 72.1441 111.982 71.9176 112.106C74.1518 100.441 69.5804 93.7584 69.5289 93.6864C69.3642 93.4496 69.4054 93.1098 69.6319 92.9348C69.8687 92.7597 70.1879 92.8112 70.3526 93.048C70.5585 93.3363 75.027 99.8228 73.0913 111.406Z" fill="#FCB35B"/>
<path id="Vector_6" d="M59.4185 79.067C59.4185 79.067 57.8844 80.2923 53.416 80.1069C47.4134 79.8598 45.488 76.6063 45.488 76.6063L45.1895 65.0954V64.9822L47.0119 65.3425L58.4507 67.4738L58.8935 72.7453L59.4185 79.067Z" fill="#FCA397"/>
<path id="Vector_7" d="M42.5636 118.191C42.3165 118.17 42.0797 118.139 41.8429 118.108C41.8223 118.098 41.812 118.098 41.7914 118.098C39.516 117.799 37.292 117.346 35.1299 116.739L38.2496 83.3285L38.3525 82.268L45.3229 74.1239L45.4053 74.0312C45.4053 74.0312 45.4156 74.0518 45.4465 74.1033C45.6215 74.3813 46.3422 75.4933 47.5675 76.6773C49.915 78.9527 54.1363 81.5164 59.9433 79.0145C60.9008 78.6027 61.3744 78.8498 61.4774 79.6117C62.0128 83.8124 50.9137 103.838 42.5636 118.191Z" fill="#7C6053"/>
<path id="Vector_8" d="M55.1506 80.5535C48.4366 80.5535 44.9967 74.3574 44.9555 74.2802C44.8206 74.031 44.9133 73.718 45.1635 73.5831C45.4126 73.4472 45.7256 73.5399 45.8615 73.7901C46.051 74.1401 50.6193 82.3172 59.7498 78.5345C60.0124 78.4253 60.314 78.5509 60.4221 78.8135C60.5313 79.076 60.4057 79.3777 60.1431 79.4858C58.3176 80.2446 56.6507 80.5535 55.1506 80.5535Z" fill="#FCB35B"/>
<path id="Vector_9" d="M58.8936 72.7435C55.8254 72.4655 47.8871 70.6123 45.3852 65.5569C45.3131 65.3922 45.2411 65.2378 45.1896 65.0936C45.1072 64.8877 45.0557 64.6921 45.0352 64.5273L58.4509 67.472L58.8936 72.7435Z" fill="black"/>
<path id="Vector_10" d="M59.94 42.7914C59.94 42.7914 66.1073 56.1072 64.1562 63.7066C62.2051 71.3061 55.2975 70.2672 51.1482 68.8968C46.9989 67.5265 45.0324 65.0431 45.0324 65.0431C45.0324 65.0431 41.2146 66.431 38.5644 62.9108C35.9142 59.3906 37.4082 55.2485 39.5837 54.2601C41.7593 53.2707 44.4053 54.7996 44.4053 54.7996L42.273 50.9376C42.273 50.9376 50.4512 30.8934 59.94 42.7914Z" fill="#FCA397"/>
<path id="Vector_11" d="M43.8336 65.9599C44.6251 65.9599 45.2668 65.3182 45.2668 64.5267C45.2668 63.7352 44.6251 63.0935 43.8336 63.0935C43.0421 63.0935 42.4004 63.7352 42.4004 64.5267C42.4004 65.3182 43.0421 65.9599 43.8336 65.9599Z" fill="#7772D3"/>
<path id="Vector_12" d="M55.6617 63.7458C55.4589 63.7458 55.2468 63.718 55.0275 63.6552C53.3276 63.1692 53.1361 61.2202 53.1289 61.1368C53.1145 60.97 53.1814 60.8073 53.3091 60.6992C53.4367 60.5911 53.6087 60.552 53.7714 60.5932L57.7631 61.6279C57.9299 61.6712 58.0638 61.7947 58.1204 61.9574C58.177 62.1201 58.1482 62.3003 58.0442 62.4372C57.9968 62.499 57.0321 63.7458 55.6617 63.7458ZM54.3747 61.8143C54.5405 62.1623 54.8246 62.5268 55.3106 62.6658C55.7935 62.8027 56.2496 62.6215 56.5945 62.3888L54.3747 61.8143Z" fill="black"/>
<path id="Vector_13" d="M44.4248 60.3548C44.3537 60.3548 44.2817 60.3404 44.2116 60.3085L38.7898 57.8436C38.5313 57.7263 38.417 57.4205 38.5344 57.162C38.6508 56.9036 38.9555 56.7883 39.216 56.9067L44.6379 59.3705C44.8963 59.4879 45.0106 59.7937 44.8932 60.0521C44.8078 60.2426 44.6204 60.3548 44.4248 60.3548Z" fill="black"/>
<path id="Vector_14" d="M39.5941 61.6066C39.4613 61.6066 39.3285 61.5561 39.2286 61.4542C39.0289 61.2524 39.0309 60.926 39.2327 60.7262L41.6224 58.3643C41.8253 58.1646 42.1506 58.1667 42.3504 58.3685C42.5501 58.5703 42.548 58.8966 42.3462 59.0964L39.9565 61.4583C39.8556 61.5581 39.7249 61.6066 39.5941 61.6066Z" fill="black"/>
<path id="Vector_15" d="M59.86 59.2472C59.8425 59.2472 59.825 59.2462 59.8075 59.2441C59.5243 59.2153 59.3184 58.9631 59.3472 58.6799C59.7694 54.5234 58.0469 52.4313 58.0294 52.4107C57.8461 52.1945 57.8718 51.8702 58.088 51.6859C58.3032 51.5016 58.6265 51.5263 58.8119 51.7404C58.8953 51.8372 60.8412 54.1559 60.3727 58.7829C60.3439 59.0495 60.1205 59.2472 59.86 59.2472Z" fill="black"/>
<path id="Vector_16" d="M52.1126 49.4137C51.9118 49.4137 51.7214 49.2953 51.638 49.0986C51.5278 48.8361 51.6513 48.5344 51.9129 48.4243L54.9687 47.1403C55.2313 47.0291 55.5329 47.1537 55.6431 47.4152C55.7533 47.6778 55.6297 47.9795 55.3682 48.0896L52.3123 49.3735C52.2475 49.4003 52.1795 49.4137 52.1126 49.4137Z" fill="black"/>
<path id="Vector_17" d="M61.9313 48.3251C61.9066 48.3251 61.8809 48.323 61.8551 48.3199L59.2224 47.9297C58.9413 47.8885 58.7467 47.626 58.789 47.3449C58.8301 47.0638 59.0917 46.8764 59.3738 46.9114L62.0065 47.3016C62.2875 47.3428 62.4821 47.6054 62.4399 47.8865C62.4018 48.1418 62.1825 48.3251 61.9313 48.3251Z" fill="black"/>
<path id="Vector_18" d="M52.1118 43.5753C52.1118 43.5753 55.1986 43.1068 58.4202 45.0538C61.6418 47.0007 62.3028 48.8983 62.3028 48.8983C62.3028 48.8983 64.2951 43.8718 59.9285 39.4352C55.562 34.9997 47.1831 33.7704 42.3543 39.0172C37.5244 44.2651 37.8199 48.8972 37.8199 48.8972L44.4053 54.7979C44.4053 54.7979 54.5757 52.8406 52.1118 43.5753Z" fill="black"/>
<path id="Vector_19" d="M61.4074 54.9542C61.1232 54.9542 60.8926 54.7236 60.8926 54.4394V52.0755C60.8926 51.9406 60.9461 51.8109 61.0408 51.7141L62.0879 50.6526C62.2877 50.4497 62.613 50.4477 62.8159 50.6474C63.0187 50.8472 63.0208 51.1725 62.821 51.3753L61.9222 52.2866V54.4394C61.9222 54.7236 61.6926 54.9542 61.4074 54.9542Z" fill="black"/>
<path id="Vector_20" d="M53.6398 54.9542C53.3556 54.9542 53.125 54.7236 53.125 54.4394V52.0755C53.125 51.9406 53.1785 51.8109 53.2733 51.7141L54.3193 50.6526C54.5181 50.4497 54.8434 50.4477 55.0473 50.6474C55.2501 50.8472 55.2522 51.1725 55.0524 51.3753L54.1546 52.2866V54.4394C54.1546 54.7236 53.925 54.9542 53.6398 54.9542Z" fill="black"/>
<path id="Vector_21" d="M41.1795 41.2695C41.1795 41.2695 34.9658 29.4693 28.6678 34.4556C22.3697 39.4419 29.3833 49.5073 35.6392 50.2414C41.8951 50.9755 41.1795 41.2695 41.1795 41.2695Z" fill="black"/>
</g>
<g id="Layer_1">
<g id="Group_2">
<g id="Group_3">
<path id="Vector_22" d="M34.8341 22.0002C34.2269 16.8569 33.6196 11.7137 33.0124 6.57032C32.8777 5.43017 33.8733 4.65255 34.5815 5.34471C36.4734 7.19366 38.3653 9.04248 40.2572 10.8914C40.8802 11.5002 41.7676 11.3021 42.1995 10.4579L46.9247 1.22222C47.424 0.246238 48.5246 0.246238 49.0239 1.22222L53.7491 10.4579C54.181 11.3021 55.0684 11.5001 55.6914 10.8914C57.5833 9.04248 59.4752 7.19366 61.3671 5.34471C62.0753 4.65255 63.0709 5.43017 62.9364 6.57032C62.3291 11.7137 61.7218 16.8569 61.1146 22.0002C61.1146 22.0002 48.5 16.9902 34.8341 22.0002Z" fill="#F6A314"/>
</g>
</g>
</g>
</g>
</svg>
