<svg width="56" height="56" viewBox="0 0 56 56" fill="none" xmlns="http://www.w3.org/2000/svg">
<g id="Group 5">
<g id="Group">
<path id="Vector" d="M56 28C56 33.1111 54.6306 37.9039 52.2342 42.03C52.1441 42.1862 52.048 42.3423 51.9519 42.4985C51.7297 42.8709 51.4955 43.2432 51.2492 43.6036C51.1471 43.7538 51.045 43.9039 50.9309 44.0541C47.2793 49.2853 41.8739 53.1892 35.5796 54.961C35.4474 54.997 35.3093 55.033 35.1772 55.0691C32.8889 55.6757 30.4805 56 28 56C18.3243 56 9.78979 51.0931 4.77477 43.6276C4.3003 42.9369 3.86186 42.2162 3.45946 41.4835C1.25525 37.4835 0 32.8889 0 28C0 12.5345 12.5345 0 28 0C43.4655 0 56 12.5345 56 28Z" fill="#EDDDD6"/>
</g>
<g id="Group_2">
<g id="Group_3">
<path id="Vector_2" d="M15.9972 24.184C15.9972 24.184 12.9972 8.26867 24.6435 5.35515C36.2897 2.44164 36.9906 18.9708 36.9906 18.9708C36.9906 18.9708 49.6645 21.3822 49.7474 33.7065C49.8507 49.1095 34.9636 46.5203 34.9636 46.5203L20.8633 40.7774C20.8633 40.7774 6.74017 33.0861 15.9972 24.184Z" fill="black"/>
</g>
</g>
<g id="Group_4">
<g id="Group_5">
<path id="Vector_3" d="M50.9311 44.0546C47.2794 49.2858 41.874 53.1897 35.5797 54.9615C35.4476 54.9975 35.3094 55.0335 35.1773 55.0696C32.889 55.6762 30.4806 56.0005 28.0001 56.0005C18.3245 56.0005 9.78992 51.0936 4.7749 43.6281C8.53466 38.487 13.2494 34.5951 16.4566 33.2137C21.2013 31.1717 28.7269 29.8023 35.6758 31.7903C35.6938 31.7963 35.7178 31.7963 35.7419 31.8023C37.832 32.4029 39.862 33.3038 41.7539 34.5831C45.844 37.3459 48.823 40.5531 50.9311 44.0546Z" fill="#F7734F"/>
</g>
</g>
<g id="Group_6">
<g id="Group_7">
<g id="Group_8">
<g id="Group_9">
<g id="Group_10">
<path id="Vector_4" d="M22.5007 26.9549L22.5019 27.1248L22.6449 30.332L22.747 32.8467C22.747 32.8467 22.532 33.4317 25.4599 33.2419C29.383 32.9729 30.6479 31.287 30.6479 31.287L30.8148 25.3921L29.6257 25.6185L22.5007 26.9549Z" fill="#FCA397"/>
</g>
</g>
</g>
</g>
</g>
<g id="Group_11">
<g id="Group_12">
<g id="Group_13">
<g id="Group_14">
<g id="Group_15">
<path id="Vector_5" d="M22.5015 27.1286L22.6444 30.3358C24.5507 30.1039 28.021 29.2787 29.4222 26.2799C29.5303 26.0361 29.6012 25.8169 29.6246 25.6343L22.5129 27.0793L22.5015 27.1286Z" fill="black"/>
</g>
</g>
</g>
</g>
</g>
<g id="Group_16">
<g id="Group_17">
<g id="Group_18">
<g id="Group_19">
<g id="Group_20">
<path id="Vector_6" d="M21.2576 11.7765C21.2576 11.7765 17.609 20.1272 18.9237 24.8191C20.2384 29.5104 24.5129 28.7723 27.0702 27.8654C29.6276 26.9585 30.815 25.3903 30.815 25.3903C30.815 25.3903 33.2042 26.2005 34.8018 23.9789C36.4 21.7573 35.4162 19.2059 34.0516 18.6215C32.6876 18.0371 31.0654 19.0221 31.0654 19.0221L32.3369 16.5951C32.3369 16.5951 26.9873 4.26056 21.2576 11.7765Z" fill="#FCA397"/>
</g>
</g>
</g>
</g>
</g>
<g id="Group_21">
<g id="Group_22">
<path id="Vector_7" d="M22.3899 10.5385C22.3899 10.5385 22.1257 14.9818 26.5953 17.001C31.065 19.0202 34.0512 18.6196 34.0512 18.6196L33.7611 12.825L28.1659 6.74756L23.1641 8.34155L22.3899 10.5385Z" fill="black"/>
</g>
</g>
<g id="Group_23">
<g id="Group_24">
<path id="Vector_8" d="M30.7632 17.7402L30.78 20.27L33.0304 18.0507L30.7632 17.7402Z" fill="black"/>
</g>
</g>
<g id="Group_25">
<g id="Group_26">
<path id="Vector_9" d="M51.952 42.4977C51.7298 42.8701 51.4956 43.2425 51.2493 43.6028C51.1472 43.753 51.0451 43.9031 50.931 44.0533C47.2793 49.2845 41.8739 53.1884 35.5796 54.9602C35.4475 54.9962 35.3094 55.0323 35.1772 55.0683L35.5616 31.771C35.5616 31.771 35.6037 31.777 35.6757 31.789C35.6938 31.795 35.7178 31.795 35.7418 31.801C37.1232 32.0353 46.1742 33.825 51.0331 40.9482C51.3634 41.4226 51.6637 41.9452 51.952 42.4977Z" fill="#F7734F"/>
</g>
</g>
<g id="Group_27">
<path id="Vector_10" d="M24.6155 33.5896C22.8473 33.5896 21.5296 33.2743 21.4197 33.2466C21.2587 33.207 21.1608 33.0442 21.2005 32.8833C21.2401 32.7223 21.4041 32.6244 21.5638 32.6635C21.6173 32.6767 26.9104 33.9397 30.5446 31.2905C30.6785 31.1938 30.8659 31.2226 30.9644 31.3566C31.0623 31.4905 31.0323 31.6785 30.8984 31.7764C28.9044 33.2298 26.5032 33.5896 24.6155 33.5896Z" fill="#7772D3"/>
</g>
<g id="Group_28">
<path id="Vector_11" d="M20.2198 14.826C20.0919 14.826 19.9736 14.7437 19.9334 14.6151C19.8835 14.4566 19.9718 14.2884 20.1304 14.2392L21.7946 13.7191C21.9538 13.6692 22.1213 13.7569 22.1706 13.916C22.2204 14.0746 22.1322 14.2428 21.9736 14.292L20.3093 14.8121C20.2799 14.8212 20.2499 14.826 20.2198 14.826Z" fill="black"/>
</g>
<g id="Group_29">
<path id="Vector_12" d="M31.2364 22.9194C31.1553 22.9194 31.0742 22.887 31.0154 22.8221C30.9037 22.7002 30.9109 22.5098 31.0334 22.3981L33.6082 20.0293C33.7301 19.917 33.9205 19.9254 34.0328 20.0473C34.1445 20.1692 34.1373 20.3596 34.0148 20.4719L31.44 22.8407C31.3817 22.893 31.3091 22.9194 31.2364 22.9194Z" fill="black"/>
</g>
<g id="Group_30">
<path id="Vector_13" d="M33.8441 22.6072C33.8039 22.6072 33.7631 22.5988 33.7234 22.582L32.1871 21.9075C32.0351 21.8408 31.9661 21.6637 32.0327 21.5117C32.0994 21.3603 32.2766 21.2907 32.4285 21.3573L33.9649 22.0318C34.1168 22.0985 34.1859 22.2757 34.1192 22.4276C34.07 22.5405 33.9595 22.6072 33.8441 22.6072Z" fill="black"/>
</g>
<g id="Group_31">
<path id="Vector_14" d="M20.7349 19.0384C20.7144 19.0384 20.694 19.0366 20.6736 19.0324C20.5115 18.9988 20.4069 18.8396 20.4406 18.6774L20.7475 17.1994L20.1439 16.5039C20.0352 16.3789 20.0484 16.1892 20.1739 16.0804C20.2994 15.9711 20.4886 15.9856 20.5973 16.1105L21.2982 16.9183C21.3595 16.9892 21.3847 17.0841 21.3655 17.1759L21.0286 18.8C20.9991 18.9411 20.8742 19.0384 20.7349 19.0384Z" fill="black"/>
</g>
<g id="Group_32">
<path id="Vector_15" d="M25.7695 19.2954C25.7491 19.2954 25.7287 19.293 25.7083 19.2894C25.5455 19.2558 25.4416 19.0966 25.4752 18.9345L25.7822 17.4564L25.1785 16.7609C25.0698 16.636 25.0831 16.4462 25.2086 16.3375C25.3335 16.2282 25.5233 16.242 25.632 16.3675L26.3329 17.1753C26.3948 17.2462 26.4194 17.3411 26.4002 17.433L26.0632 19.057C26.0338 19.1981 25.9089 19.2954 25.7695 19.2954Z" fill="black"/>
</g>
<g id="Group_33">
<path id="Vector_16" d="M21.7303 22.7054C21.5915 22.7054 21.4666 22.6081 21.4366 22.467C20.8774 19.7967 22.1705 18.452 22.2258 18.3961C22.3423 18.2778 22.5321 18.2766 22.6504 18.3937C22.7681 18.5096 22.7693 18.6994 22.6534 18.8178C22.6036 18.8694 21.5357 20.0118 22.024 22.3439C22.0582 22.5066 21.9537 22.6652 21.7915 22.6994C21.7717 22.7036 21.7507 22.7054 21.7303 22.7054Z" fill="black"/>
</g>
<g id="Group_34">
<path id="Vector_17" d="M24.444 25.274C24.2662 25.274 23.8398 25.1911 22.9491 24.2061C22.8464 24.092 22.8091 23.9376 22.8494 23.7929C22.8914 23.6421 23.0109 23.5238 23.1677 23.4764C25.3106 22.8355 25.6019 23.0542 25.7263 23.1484C25.8326 23.2283 25.9941 23.4229 25.8752 23.8217C25.7124 24.3689 25.0302 25.2361 24.4968 25.2722C24.483 25.2728 24.465 25.274 24.444 25.274ZM23.5647 23.9857C24.0464 24.486 24.3899 24.6662 24.4578 24.6722C24.51 24.6662 24.7106 24.5496 24.9575 24.2421C25.1707 23.9755 25.2776 23.7424 25.3076 23.6229C25.1317 23.6379 24.6067 23.686 23.5647 23.9857Z" fill="black"/>
</g>
<g id="Group_35">
<g id="Group_36">
<path id="Vector_18" d="M14.4366 42.3659C14.406 42.4013 11.5375 45.477 12.0816 51.0062C11.9093 50.895 11.7429 50.7785 11.5771 50.6554C11.5297 50.6248 11.4882 50.5875 11.4408 50.5509C11.0882 45.0608 13.9681 41.9911 14.0054 41.9497C14.1213 41.8314 14.3075 41.8284 14.4318 41.9389C14.5495 42.0554 14.5525 42.2476 14.4366 42.3659Z" fill="#7772D3"/>
</g>
</g>
</g>
</svg>
