<svg width="56" height="56" viewBox="0 0 56 56" fill="none" xmlns="http://www.w3.org/2000/svg">
<g id="Group 6">
<g id="Group">
<path id="Vector" d="M56 28.0005C56 33.0275 54.6728 37.7482 52.3487 41.8323C50.7153 44.7032 48.5834 47.2617 46.0731 49.3819C43.4128 51.6341 40.326 53.3999 36.951 54.541C34.1405 55.484 31.1318 56.0005 28.003 56.0005C19.7096 56.0005 12.251 52.3909 7.12838 46.6611C6.82211 46.3248 6.52784 45.9765 6.23958 45.6221C5.41084 44.6011 4.65417 43.52 3.97556 42.3909C1.45331 38.1807 0 33.2617 0 28.0005C0 12.535 12.5392 0.000488281 28.003 0.000488281C43.4608 0.000488281 56 12.535 56 28.0005Z" fill="#EDDDD6"/>
</g>
<g id="Group_2">
<path id="Vector_2" d="M20.5919 22.0298C20.5919 22.0298 14.0815 26.9403 13.5975 32.9043C12.8642 41.9307 23.1304 37.9817 24.2588 32.2274C25.3872 26.473 20.5919 22.0298 20.5919 22.0298Z" fill="black"/>
</g>
<g id="Group_3">
<path id="Vector_3" d="M46.0728 49.3818C43.4124 51.6341 40.3257 53.3998 36.9507 54.541C34.1402 55.4839 31.1315 56.0004 28.0027 56.0004C19.7093 56.0004 12.2506 52.3908 7.12806 46.6611C6.82178 46.3248 6.52752 45.9764 6.23926 45.622L23.9611 32.7812C23.9731 32.7752 24.6457 32.2827 24.6457 32.2827L31.6059 32.8473L34.4945 33.0815L46.0728 49.3818Z" fill="#FCB35B"/>
</g>
<g id="Group_4">
<path id="Vector_4" d="M20.0081 21.4155C20.0081 21.4155 17.6588 18.8191 18.3356 14.7957C18.7944 12.0677 20.0081 11.1855 20.0081 11.1855C20.0081 11.1855 18.1596 7.46233 23.663 7.68756C29.1663 7.91338 32.4044 10.6155 32.4044 10.6155C32.4044 10.6155 34.92 9.38005 36.0478 12.3134C37.1756 15.2467 36.0478 19.5746 36.0478 19.5746L20.0081 21.4155Z" fill="black"/>
</g>
<g id="Group_5">
<path id="Vector_5" d="M24.646 32.7334L7.1284 46.6613C6.82213 46.325 6.52786 45.9766 6.2396 45.6223C5.41086 44.6013 4.65419 43.5202 3.97559 42.3911C4.51607 41.9046 5.08057 41.4181 5.66309 40.9316C13.6923 34.2349 21.6313 33.0037 23.9614 32.7814C24.4118 32.7394 24.646 32.7334 24.646 32.7334Z" fill="#FCB35B"/>
</g>
<g id="Group_6">
<g id="Group_7">
<g id="Group_8">
<g id="Group_9">
<path id="Vector_6" d="M32.0894 25.9507L31.9542 33.1309C31.9542 33.1309 30.7033 35.1561 26.765 35.3729C23.8314 35.5339 22.9336 33.8978 22.9336 33.8978L23.7611 27.6372L30.8925 26.1945L32.0894 25.9507Z" fill="#F27E64"/>
</g>
</g>
</g>
</g>
<g id="Group_10">
<path id="Vector_7" d="M52.3485 41.8325C50.7151 44.7034 48.5832 47.2619 46.0729 49.382C43.4125 51.6343 40.3258 53.4001 36.9508 54.5412L41.4788 49.0217L31.606 32.8475L31.5339 32.7334C31.5339 32.7334 32.6689 32.7754 34.4946 33.0817C38.6503 33.7724 46.3732 35.8205 52.3485 41.8325Z" fill="#FCB35B"/>
</g>
<g id="Group_11">
<g id="Group_12">
<g id="Group_13">
<g id="Group_14">
<path id="Vector_8" d="M32.0898 25.5386C32.0681 25.7218 31.9931 25.9362 31.8784 26.1818C30.2912 29.5001 24.9662 30.7644 23.2715 30.8731L23.7573 27.565L32.0898 25.5386Z" fill="black"/>
</g>
</g>
</g>
</g>
<g id="Group_15">
<g id="Group_16">
<g id="Group_17">
<g id="Group_18">
<path id="Vector_9" d="M22.6434 12.215C22.6434 12.215 18.9063 20.5502 20.1788 25.2655C21.4513 29.9808 25.7422 29.2817 28.3142 28.397C30.8863 27.5123 32.091 25.952 32.091 25.952C32.091 25.952 34.4776 26.7868 36.1002 24.5754C37.7228 22.364 36.7614 19.7976 35.4 19.1982C34.0386 18.5994 32.4033 19.5706 32.4033 19.5706L33.7011 17.1502C33.7011 17.1502 28.4584 4.73695 22.6434 12.215Z" fill="#F27E64"/>
</g>
</g>
</g>
</g>
<g id="Group_19">
<g id="Group_20">
<g id="Group_21">
<g id="Group_22">
<path id="Vector_10" d="M32.4029 19.5709C32.4029 19.5709 28.8039 20.2976 26.3033 16.2916C23.8027 12.2856 24.0327 10.6412 24.0327 10.6412L21.5416 14.7763C21.5416 14.7763 20.9849 11.909 22.1314 10.0808C23.2778 8.25318 24.4687 8.63157 24.4687 8.63157L32.4047 10.6147L34.4946 16.9763L32.4029 19.5709Z" fill="black"/>
</g>
</g>
</g>
</g>
<g id="Group_23">
<path id="Vector_11" d="M22.9284 22.8887C22.7999 22.8887 22.681 22.8058 22.6407 22.6761C22.0876 20.8689 23.3626 19.0388 23.4172 18.962C23.5133 18.8268 23.7001 18.795 23.8352 18.8905C23.9709 18.986 24.0027 19.1734 23.9073 19.3091C23.8952 19.3253 22.7488 20.9782 23.2155 22.5001C23.2635 22.6587 23.1746 22.8262 23.0161 22.8749C22.9872 22.8845 22.9572 22.8887 22.9284 22.8887Z" fill="black"/>
</g>
<g id="Group_24">
<path id="Vector_12" d="M32.7481 23.5319C32.6737 23.5319 32.5998 23.5049 32.5415 23.4496C32.4208 23.3355 32.416 23.1451 32.5307 23.025L34.8116 20.622C34.9251 20.5019 35.116 20.4977 35.2355 20.6106C35.3562 20.7253 35.3611 20.9151 35.247 21.0352L32.9661 23.4382C32.9067 23.5007 32.8268 23.5319 32.7481 23.5319Z" fill="black"/>
</g>
<g id="Group_25">
<path id="Vector_13" d="M35.1571 22.8931C35.1421 22.8931 35.1258 22.8919 35.1108 22.8895L33.5392 22.6468C33.3753 22.6216 33.263 22.4684 33.2882 22.3045C33.3134 22.1405 33.4696 22.03 33.6305 22.0534L35.2021 22.2961C35.3661 22.3213 35.4784 22.4744 35.4531 22.6384C35.4303 22.7868 35.3024 22.8931 35.1571 22.8931Z" fill="black"/>
</g>
<g id="Group_26">
<path id="Vector_14" d="M25.9425 25.2819C25.1516 25.2819 24.2519 24.7468 24.1222 24.6669C24.0309 24.6105 23.9763 24.5084 23.9799 24.4009C23.9841 24.2928 24.0454 24.1955 24.1415 24.145L26.6757 22.8219C26.7538 22.7804 26.8475 22.7762 26.9315 22.8111C27.0138 22.8459 27.0763 22.9156 27.1021 23.0015C27.1195 23.0591 27.5159 24.4159 26.6733 25.0615C26.4637 25.2213 26.2091 25.2819 25.9425 25.2819ZM24.9294 24.4105C25.4146 24.6255 26.0235 24.8003 26.3076 24.584C26.6187 24.3456 26.6319 23.8729 26.594 23.5408L24.9294 24.4105Z" fill="black"/>
</g>
<g id="Group_27">
<path id="Vector_15" d="M21.3165 16.0326C21.1736 16.0326 21.0469 15.9299 21.0217 15.7839C20.9929 15.6206 21.1028 15.465 21.2655 15.4362L22.7518 15.1773C22.9122 15.1509 23.0701 15.2578 23.0989 15.4218C23.1278 15.5852 23.0179 15.7407 22.8551 15.7695L21.3688 16.0284C21.3508 16.0308 21.334 16.0326 21.3165 16.0326Z" fill="black"/>
</g>
<g id="Group_28">
<path id="Vector_16" d="M27.4947 17.0087C27.4491 17.0087 27.4028 16.9985 27.359 16.9763L24.9208 15.7414C24.7725 15.6664 24.713 15.4856 24.7881 15.3378C24.8632 15.1895 25.0451 15.1312 25.1917 15.2057L27.6298 16.4405C27.7782 16.5156 27.8376 16.6964 27.7626 16.8441C27.7103 16.9486 27.604 17.0087 27.4947 17.0087Z" fill="black"/>
</g>
<g id="Group_29">
<path id="Vector_17" d="M36.9499 22.0298C36.9499 22.0298 42.1403 26.5295 41.407 33.8634C40.6738 41.1974 33.4019 40.2556 31.8747 37.5793C29.5609 33.5247 32.0903 25.9517 32.0903 25.9517C32.0903 25.9517 36.5499 26.6989 36.9499 22.0298Z" fill="black"/>
</g>
<g id="Group_30">
<path id="Vector_18" d="M21.3163 19.4684C21.2869 19.4684 21.2575 19.4641 21.2287 19.4551C21.0695 19.4065 20.9812 19.2383 21.0299 19.0798L21.446 17.7224L21.0839 17.2792C20.9788 17.1506 20.9975 16.9614 21.126 16.8563C21.2539 16.7518 21.4431 16.7699 21.5481 16.899L22.0118 17.4665C22.0754 17.544 22.0964 17.6485 22.0664 17.7446L21.6028 19.2557C21.5638 19.3855 21.4448 19.4684 21.3163 19.4684Z" fill="black"/>
</g>
<g id="Group_31">
<path id="Vector_19" d="M25.8654 19.8749C25.836 19.8749 25.8065 19.8707 25.7771 19.8617C25.618 19.813 25.5297 19.6448 25.5783 19.4863L25.9933 18.1331L25.4594 17.5103C25.3513 17.3848 25.3664 17.195 25.4925 17.0869C25.618 16.98 25.8083 16.9938 25.9158 17.1199L26.5566 17.8683C26.6233 17.9463 26.6455 18.0533 26.6155 18.1518L26.1512 19.6629C26.1128 19.7914 25.9933 19.8749 25.8654 19.8749Z" fill="black"/>
</g>
<g id="Group_32">
<path id="Vector_20" d="M26.7856 35.6625C24.2297 35.6625 22.7158 34.2685 22.6936 34.2481C22.5735 34.1346 22.5681 33.9448 22.6816 33.8241C22.7951 33.7046 22.9848 33.6986 23.1056 33.8115C23.2257 33.925 26.0944 36.5346 30.7522 33.9208C30.8975 33.8379 31.0807 33.8907 31.1611 34.0349C31.2428 34.1796 31.1912 34.3628 31.047 34.4439C29.4262 35.3526 27.9903 35.6625 26.7856 35.6625Z" fill="white"/>
</g>
</g>
</svg>
