<svg width="56" height="56" viewBox="0 0 56 56" fill="none" xmlns="http://www.w3.org/2000/svg">
<g id="Group 3">
<g id="Group">
<path id="Vector" d="M56 28.0034C56 32.6876 54.853 37.1015 52.8112 40.981C52.7931 41.023 52.7751 41.059 52.7511 41.1011C52.637 41.3172 52.5229 41.5274 52.3968 41.7376C49.256 47.3166 44.2535 51.7065 38.2301 54.0666C37.8578 54.2107 37.4795 54.3488 37.1011 54.481C36.7588 54.6011 36.4165 54.7152 36.0742 54.8172C35.7199 54.9253 35.3656 55.0214 35.0112 55.1115C32.7713 55.694 30.4172 56.0003 27.997 56.0003C26.9521 56.0003 25.9191 55.9403 24.9042 55.8262C23.6611 55.694 22.436 55.4718 21.247 55.1776C20.3702 54.9614 19.5174 54.7032 18.6767 54.4029C18.5386 54.3549 18.3944 54.3068 18.2563 54.2528C17.932 54.1327 17.6137 54.0065 17.2954 53.8744C16.4607 53.5321 15.65 53.1538 14.8633 52.7274C14.527 52.5472 14.1967 52.3611 13.8664 52.1689C13.7823 52.1209 13.6982 52.0728 13.6142 52.0188C12.9596 51.6284 12.329 51.2141 11.7165 50.7757C11.3441 50.5114 10.9778 50.2352 10.6235 49.9529C8.88794 48.5837 7.32054 47.0103 5.95733 45.2688C5.76516 45.0225 5.57298 44.7703 5.38681 44.5121C5.05051 44.0497 4.72622 43.5813 4.41394 43.0948C1.61545 38.741 0 33.5643 0 28.0034C0 12.5396 12.5392 0.000488281 27.997 0.000488281C43.4608 0.000488281 56 12.5396 56 28.0034Z" fill="#EDDDD6"/>
</g>
<g id="Group_2">
<path id="Vector_2" d="M37.9243 50.3254L37.3357 50.5776L35.5161 51.3403L24.9046 55.8263C23.6615 55.6942 22.4364 55.472 21.2474 55.1777C20.3706 54.9615 19.5178 54.7033 18.6771 54.403C18.539 54.355 18.3948 54.3069 18.2567 54.2529C17.9324 54.1328 17.6141 54.0067 17.2958 53.8746C16.4611 53.5323 15.6504 53.1539 14.8637 52.7275C14.5274 52.5474 14.1971 52.3612 13.8668 52.169C13.7827 52.121 13.6986 52.073 13.6146 52.0189C12.96 51.6286 12.3294 51.2142 11.7169 50.7758C11.3445 50.5116 10.9782 50.2353 10.6239 49.9531C8.88833 48.5839 7.32094 47.0104 5.95772 45.2689C5.76555 45.0227 5.57337 44.7705 5.38721 44.5122C8.89434 39.0774 15.6624 30.4057 23.7456 29.3187C24.8986 29.1626 25.9616 29.2346 26.9404 29.4929C29.3246 30.1174 31.2103 31.8409 32.6936 34.0449C32.9278 34.3812 33.144 34.7235 33.3482 35.0838C37.0114 41.3234 37.9243 50.3254 37.9243 50.3254Z" fill="#5F8457"/>
</g>
<g id="Group_3">
<path id="Vector_3" d="M20.9532 16.7419C20.9532 16.7419 18.8135 10.5329 20.6619 7.80111C22.311 5.36354 30.417 6.6565 33.2978 8.52716C36.1786 10.3978 36.2741 12.8534 36.2741 12.8534C36.2741 12.8534 37.6853 13.2269 38.0132 14.4406C38.3411 15.6543 37.2908 17.6511 37.2908 17.6511C37.2908 17.6511 35.8603 15.8357 33.8137 16.9929C31.7671 18.1501 20.9532 16.7419 20.9532 16.7419Z" fill="black"/>
</g>
<g id="Group_4">
<g id="Group_5">
<path id="Vector_4" d="M38.2301 54.0669C37.8578 54.211 37.4795 54.3491 37.1011 54.4812C36.7588 54.6013 36.4165 54.7154 36.0742 54.8175C35.7199 54.9256 35.3656 55.0217 35.0113 55.1118C32.7713 55.6943 30.4172 56.0006 27.997 56.0006C26.9521 56.0006 25.9192 55.9405 24.9042 55.8264C23.6611 55.6943 22.436 55.4721 21.247 55.1779C20.3702 54.9617 19.5174 54.7034 18.6767 54.4032C18.5386 54.3551 18.3944 54.3071 18.2563 54.253C17.932 54.1329 17.6137 54.0068 17.2954 53.8747C16.4607 53.5324 15.65 53.1541 14.8633 52.7277C15.2176 49.4488 15.5359 47.2388 15.5359 47.2388L23.7452 29.3188L26.9401 29.493C26.9461 29.493 31.9786 29.7633 31.9786 29.7633C31.9846 29.7813 31.9906 29.7993 31.9906 29.8173C31.9966 29.8353 33.3478 35.084 33.3478 35.084L37.3354 50.5778L38.2301 54.0669Z" fill="white"/>
</g>
</g>
<g id="Group_6">
<g id="Group_7">
<g id="Group_8">
<g id="Group_9">
<g id="Group_10">
<path id="Vector_5" d="M31.8393 26.425L32.0363 31.1518C32.0363 31.1518 30.3085 32.7324 28.0283 32.8477C24.9493 33.0039 23.7837 30.675 23.7837 30.675L23.6204 25.1309L31.8393 26.425Z" fill="#FCA397"/>
</g>
</g>
</g>
</g>
</g>
<g id="Group_11">
<g id="Group_12">
<g id="Group_13">
<g id="Group_14">
<g id="Group_15">
<path id="Vector_6" d="M31.839 26.4172C31.839 26.4172 31.0013 30.6587 27.4869 30.254C24.6536 29.9273 23.6489 25.6353 23.6489 25.6353L31.839 26.4172Z" fill="black"/>
</g>
</g>
</g>
</g>
</g>
<g id="Group_16">
<g id="Group_17">
<g id="Group_18">
<g id="Group_19">
<g id="Group_20">
<path id="Vector_7" d="M21.8366 13.2706C21.8366 13.2706 20.489 21.785 23.3758 25.7419C26.262 29.6988 29.7967 28.3902 31.3575 27.1039C33.463 25.3696 33.8281 23.0491 33.8281 23.0491C33.8281 23.0491 36.8188 23.5409 37.728 21.0847C38.6829 18.5048 36.7642 16.5135 35.2736 16.4426C33.7837 16.3712 33.6198 16.648 33.6198 16.648L33.9645 13.9156C33.9645 13.9156 24.5931 4.1791 21.8366 13.2706Z" fill="#FCA397"/>
</g>
</g>
</g>
</g>
</g>
<g id="Group_21">
<g id="Group_22">
<g id="Group_23">
<g id="Group_24">
<g id="Group_25">
<path id="Vector_8" d="M23.4012 17.1899C23.4012 17.1899 18.8335 15.4189 18.6005 18.9176C18.3303 22.9712 23.1592 22.8457 23.1592 22.8457L23.4012 17.1899Z" fill="#FCA397"/>
</g>
</g>
</g>
</g>
</g>
<g id="Group_26">
<g id="Group_27">
<path id="Vector_9" d="M34.3548 16.8933C34.3548 16.8933 32.8072 17.6008 29.4105 15.2899C26.0145 12.9784 26.8799 10.0827 26.8799 10.0827C26.8799 10.0827 22.4425 13.0727 21.5453 16.6555C20.6481 20.2377 19.8038 8.36335 24.9564 8.4216C30.109 8.48045 37.9201 11.5732 34.3548 16.8933Z" fill="black"/>
</g>
</g>
<g id="Group_28">
<g id="Group_29">
<path id="Vector_10" d="M23.7455 29.3188C23.7455 29.3188 20.7969 37.7984 18.689 54.2951C18.683 54.3311 18.677 54.3671 18.677 54.4032C18.5389 54.3551 18.3947 54.3071 18.2566 54.253C17.9323 54.1329 17.614 54.0068 17.2958 53.8747C16.461 53.5324 15.6503 53.1541 14.8636 52.7277C14.5273 52.5475 14.197 52.3614 13.8667 52.1692C13.7826 52.1211 13.6986 52.0731 13.6145 52.0191C12.9599 51.6287 12.3293 51.2143 11.7168 50.7759C11.8669 48.632 11.963 47.2988 11.963 47.2988L23.7455 29.3188Z" fill="#5F8457"/>
</g>
</g>
<g id="Group_30">
<g id="Group_31">
<path id="Vector_11" d="M52.8115 40.9804C52.7934 41.0224 52.7754 41.0585 52.7514 41.1005C52.6373 41.3167 52.5232 41.5269 52.3971 41.7371C49.2563 47.316 44.2538 51.7059 38.2304 54.066C37.8581 54.2102 37.4798 54.3483 37.1014 54.4804C36.7591 54.6005 36.4168 54.7146 36.0745 54.8167C35.9064 53.7538 35.7202 52.5827 35.516 51.3396C34.6813 46.181 33.6363 39.7313 32.6935 34.0442C32.4533 32.5789 32.2191 31.1617 31.9969 29.8345C31.9909 29.7985 31.9849 29.7805 31.9789 29.7624C31.9548 29.5823 31.9248 29.4081 31.8948 29.234C31.8948 29.234 43.4791 28.3211 52.4091 40.4159C52.5472 40.6021 52.6793 40.7882 52.8115 40.9804Z" fill="#5F8457"/>
</g>
</g>
<g id="Group_32">
<path id="Vector_12" d="M34.249 21.0036C34.18 21.0036 34.1109 20.9802 34.0544 20.9321C33.9283 20.824 33.9133 20.6349 34.0202 20.5088L35.963 18.2297C36.0717 18.1036 36.2608 18.0892 36.3863 18.1955C36.5124 18.3036 36.5275 18.4928 36.4206 18.6189L34.4778 20.8979C34.4178 20.9676 34.3343 21.0036 34.249 21.0036Z" fill="black"/>
</g>
<g id="Group_33">
<path id="Vector_13" d="M36.3934 20.311C36.3826 20.311 36.373 20.3104 36.3628 20.3092L34.9317 20.1657C34.7666 20.1495 34.6459 20.0018 34.6633 19.8372C34.6795 19.6715 34.8392 19.5502 34.9918 19.5688L36.4229 19.7123C36.588 19.7285 36.7087 19.8756 36.6913 20.0408C36.6763 20.1957 36.5454 20.311 36.3934 20.311Z" fill="black"/>
</g>
<g id="Group_34">
<path id="Vector_14" d="M29.6684 18.2123C29.5045 18.2123 29.37 18.0802 29.3682 17.9157L29.3513 16.4948C29.3495 16.329 29.4822 16.1927 29.648 16.1909C29.8155 16.1909 29.9501 16.323 29.9519 16.4876L29.9687 17.9085C29.9705 18.0742 29.8378 18.2105 29.672 18.2123C29.6708 18.2123 29.6696 18.2123 29.6684 18.2123Z" fill="black"/>
</g>
<g id="Group_35">
<path id="Vector_15" d="M24.3787 18.4799C24.2099 18.4781 24.0766 18.3424 24.0784 18.176L24.094 16.7552C24.0958 16.5906 24.2303 16.4585 24.3943 16.4585C24.563 16.4603 24.6963 16.596 24.6945 16.7624L24.6789 18.1832C24.6771 18.3478 24.5426 18.4799 24.3787 18.4799Z" fill="black"/>
</g>
<g id="Group_36">
<path id="Vector_16" d="M21.3056 20.8573C21.2125 20.8573 21.1206 20.814 21.0624 20.7323L19.4043 18.4335C19.307 18.299 19.3376 18.1116 19.4722 18.0149C19.6055 17.9164 19.7934 17.9483 19.8907 18.0828L21.5488 20.3816C21.6461 20.5162 21.6155 20.7035 21.481 20.8002C21.4281 20.8386 21.3668 20.8573 21.3056 20.8573Z" fill="black"/>
</g>
<g id="Group_37">
<path id="Vector_17" d="M19.4051 20.2279C19.2574 20.2279 19.1283 20.118 19.1085 19.9673C19.0862 19.8033 19.2009 19.652 19.3661 19.6304L20.6837 19.4526C20.844 19.4232 20.9989 19.5451 21.0206 19.7103C21.0428 19.8742 20.9281 20.0255 20.7629 20.0472L19.4454 20.2249C19.4322 20.2273 19.4189 20.2279 19.4051 20.2279Z" fill="black"/>
</g>
<g id="Group_38">
<path id="Vector_18" d="M27.0818 22.5402C26.9882 22.5402 26.8957 22.4964 26.8368 22.4135C25.6357 20.7206 26.5798 18.516 26.6206 18.4223C26.6867 18.271 26.8626 18.2013 27.0158 18.268C27.1677 18.334 27.2368 18.5112 27.1707 18.6631C27.1623 18.6824 26.3246 20.6527 27.3275 22.0658C27.4229 22.2009 27.3911 22.3882 27.256 22.4843C27.2031 22.5222 27.1425 22.5402 27.0818 22.5402Z" fill="black"/>
</g>
<g id="Group_39">
<path id="Vector_19" d="M29.077 24.2839C28.602 24.2839 28.1636 24.0269 28.0981 23.9873C28.0128 23.935 27.9594 23.8444 27.9552 23.7447C27.9504 23.645 27.9954 23.5501 28.0753 23.49L29.7208 22.2649C29.8096 22.1989 29.9286 22.1869 30.0282 22.2343C30.1285 22.2812 30.1946 22.3796 30.2 22.4907C30.2426 23.3333 30.0487 23.8894 29.6229 24.1422C29.4487 24.2455 29.2602 24.2839 29.077 24.2839ZM28.8602 23.6546C29.0223 23.693 29.1929 23.7002 29.3166 23.6252C29.4451 23.5483 29.5322 23.3753 29.5754 23.1219L28.8602 23.6546Z" fill="black"/>
</g>
<g id="Group_40">
<path id="Vector_20" d="M23.5334 15.6639C23.4265 15.6639 23.3232 15.6069 23.2691 15.506C23.1905 15.3601 23.2451 15.1781 23.391 15.0988L24.6035 14.4443C24.7476 14.3668 24.9308 14.4196 25.0107 14.5662C25.0894 14.7121 25.0347 14.8941 24.8888 14.9733L23.6763 15.6279C23.6306 15.6525 23.582 15.6639 23.5334 15.6639Z" fill="black"/>
</g>
<g id="Group_41">
<path id="Vector_21" d="M30.1383 15.538C30.1017 15.538 30.0651 15.5314 30.029 15.5176L28.2148 14.8084C28.0599 14.7477 27.9836 14.5736 28.0443 14.4192C28.1049 14.2637 28.2785 14.1874 28.4328 14.2487L30.2476 14.9579C30.4026 15.0186 30.4788 15.1927 30.4182 15.3465C30.372 15.466 30.259 15.538 30.1383 15.538Z" fill="black"/>
</g>
<g id="Group_42">
<path id="Vector_22" d="M27.9009 33.3324C27.6937 33.3324 27.4877 33.318 27.2823 33.291C24.9288 32.9691 23.5878 30.9242 23.532 30.8372C23.4425 30.6984 23.4821 30.5123 23.6209 30.4228C23.759 30.3345 23.9451 30.3729 24.0358 30.5117C24.0484 30.5309 25.2909 32.4154 27.3688 32.6964C28.7939 32.8928 30.3 32.2941 31.8368 30.9266C31.9593 30.8173 32.1497 30.8275 32.2608 30.9519C32.3707 31.0756 32.3599 31.2653 32.2355 31.3758C30.7738 32.676 29.3181 33.3324 27.9009 33.3324Z" fill="#E56445"/>
</g>
</g>
</svg>
