<svg width="56" height="56" viewBox="0 0 56 56" fill="none" xmlns="http://www.w3.org/2000/svg">
<g id="Group 4">
<g id="Group">
<path id="Vector" d="M56 28.0034C56 31.6126 55.3154 35.0657 54.0723 38.2365C53.1054 40.7107 51.7902 43.0047 50.1808 45.0766C49.8985 45.4489 49.6043 45.8092 49.292 46.1635C47.5624 48.2054 45.5386 49.9949 43.2866 51.4602C42.6861 51.8506 42.0735 52.2229 41.443 52.5652C37.4494 54.7572 32.8733 56.0003 27.997 56.0003C22.2679 56.0003 16.9471 54.2767 12.5091 51.3281C12.395 51.25 12.2809 51.172 12.1668 51.0879C11.1459 50.3973 10.1731 49.6346 9.26026 48.7999C9.15817 48.7098 9.05608 48.6197 8.95999 48.5236C8.32943 47.9471 7.72889 47.3346 7.15838 46.698C7.13436 46.668 7.10433 46.638 7.08031 46.6079C2.67838 41.6655 0 35.1497 0 28.0034C0 12.5396 12.5392 0.000488281 27.997 0.000488281C43.4608 0.000488281 56 12.5396 56 28.0034Z" fill="#EDDDD6"/>
</g>
<g id="Group_2">
<path id="Vector_2" d="M12.1668 51.0884C11.1459 50.3978 10.1731 49.6351 9.26027 48.8004C9.15818 48.7103 9.05609 48.6202 8.96 48.5241C8.32944 47.9476 7.7289 47.3351 7.15839 46.6985C7.13437 46.6685 7.10434 46.6384 7.08032 46.6084C8.83989 41.7981 11.6804 34.5617 13.8424 33.1865C13.8724 33.1685 13.9024 33.1444 13.9324 33.1204C13.9685 33.1024 13.9985 33.0844 14.0345 33.0604C14.9534 32.9403 13.8183 41.2576 12.1668 51.0884Z" fill="#F7734F"/>
</g>
<g id="Group_3">
<path id="Vector_3" d="M49.292 46.1632C47.5624 48.205 45.5386 49.9946 43.2866 51.4599C42.6861 51.8502 42.0735 52.2226 41.4429 52.5649C37.4494 54.7568 32.8733 55.9999 27.997 55.9999C22.2678 55.9999 16.9471 54.2764 12.5091 51.3278C12.395 51.2497 12.2809 51.1716 12.1668 51.0876C11.1459 50.3969 10.173 49.6343 9.26023 48.7995C9.15814 48.7094 9.05605 48.6194 8.95996 48.5233C9.62055 44.0073 10.4853 39.7675 11.5843 36.8369C12.2509 35.0593 12.9956 33.7742 13.8423 33.1856C13.8723 33.1676 13.9024 33.1436 13.9324 33.1196C13.9684 33.1016 13.9985 33.0836 14.0345 33.0595C18.5265 30.207 30.7354 31.1378 38.2541 32.3569C40.1938 32.6692 41.9294 33.7982 43.0944 35.4917C44.9801 38.2361 47.8326 42.6501 49.292 46.1632Z" fill="#F7734F"/>
</g>
<g id="Group_4">
<path id="Vector_4" d="M34.9336 7.75934C34.9336 7.75934 34.6856 6.17753 36.1959 6.8243C37.7063 7.47168 37.0589 9.05348 36.1959 8.83789C35.333 8.6223 34.9336 7.75934 34.9336 7.75934Z" fill="#7772D3"/>
</g>
<g id="Group_5">
<path id="Vector_5" d="M37.8495 17.7466C37.8495 17.7466 37.6129 22.0127 35.6918 22.2091C33.7713 22.4049 30.9458 19.9781 30.9458 19.9781L32.27 15.1763L37.8495 17.7466Z" fill="black"/>
</g>
<g id="Group_6">
<path id="Vector_6" d="M23.1913 16.5329C23.1913 16.5329 16.9229 14.5193 15.9879 11.8584C15.0529 9.19741 26.8978 13.2246 26.8978 13.2246L23.1913 16.5329Z" fill="#5C5CC6"/>
</g>
<g id="Group_7">
<g id="Group_8">
<path id="Vector_7" d="M32.2702 25.667L31.7837 32.4494C31.7837 32.4494 30.5598 34.3627 26.6419 34.6462C23.7233 34.8576 22.7048 34.1886 22.7048 34.1886L23.1414 30.8027L23.5714 27.501L30.6547 26.0087L32.2702 25.667Z" fill="#F49282"/>
</g>
</g>
<g id="Group_9">
<g id="Group_10">
<path id="Vector_8" d="M30.6551 26.0093C30.6365 26.1918 30.5651 26.4068 30.4552 26.6531C28.928 29.9824 24.8276 30.667 23.1418 30.8027L23.5718 27.501L30.6551 26.0093Z" fill="black"/>
</g>
</g>
<g id="Group_11">
<g id="Group_12">
<path id="Vector_9" d="M22.2147 12.2346C22.2147 12.2346 18.6276 20.5941 19.971 25.2686C21.3144 29.9432 25.5758 29.1775 28.1227 28.2557C30.6696 27.3333 31.8442 25.7599 31.8442 25.7599C31.8442 25.7599 34.2344 26.5526 35.8144 24.3246C37.3944 22.0966 36.3957 19.5563 35.0301 18.9822C33.6645 18.4081 32.052 19.4014 32.052 19.4014L33.3047 16.9705C33.3047 16.9705 27.8849 4.69494 22.2147 12.2346Z" fill="#F49282"/>
</g>
</g>
<g id="Group_13">
<path id="Vector_10" d="M32.2703 23.0508C32.1766 23.0508 32.083 23.007 32.0253 22.9235C31.9298 22.7878 31.9622 22.601 32.0974 22.5055L35.1319 20.364C35.2658 20.268 35.4549 20.2998 35.5498 20.4361C35.6453 20.5718 35.6129 20.7586 35.4778 20.8541L32.4433 22.9956C32.391 23.0334 32.3298 23.0508 32.2703 23.0508Z" fill="black"/>
</g>
<g id="Group_14">
<path id="Vector_11" d="M35.0186 23.0374C34.9933 23.0374 34.9669 23.0338 34.9411 23.0272L32.9605 22.4982C32.8002 22.4555 32.7047 22.2904 32.748 22.1306C32.7906 21.9709 32.9533 21.876 33.1155 21.9174L35.096 22.4465C35.2564 22.4891 35.3519 22.6543 35.3086 22.814C35.2732 22.9492 35.1519 23.0374 35.0186 23.0374Z" fill="black"/>
</g>
<g id="Group_15">
<path id="Vector_12" d="M27.7911 16.2523C27.701 16.2523 27.611 16.2114 27.5521 16.1334C27.2909 15.7887 26.999 15.5929 26.6849 15.5496C26.2159 15.489 25.8256 15.7826 25.8213 15.785C25.691 15.8853 25.5025 15.8631 25.401 15.7316C25.2995 15.6013 25.3217 15.4145 25.452 15.3124C25.4754 15.2938 26.0399 14.8572 26.7558 14.9539C27.2386 15.0158 27.6674 15.2902 28.0307 15.7706C28.131 15.9028 28.1052 16.0907 27.9725 16.191C27.9184 16.2318 27.8541 16.2523 27.7911 16.2523Z" fill="black"/>
</g>
<g id="Group_16">
<path id="Vector_13" d="M21.3032 15.6572C21.2155 15.6572 21.1296 15.6194 21.0695 15.5461C20.965 15.417 20.9848 15.2284 21.1134 15.1233C21.5181 14.796 21.8947 14.6639 22.2268 14.7282C22.5883 14.799 22.7492 15.0741 22.766 15.1053C22.8459 15.2506 22.7925 15.4338 22.6477 15.5137C22.5042 15.5912 22.3247 15.5431 22.2436 15.402C22.2364 15.3912 22.1925 15.3311 22.1031 15.3167C22.0178 15.3005 21.8244 15.3203 21.4917 15.5905C21.4371 15.6356 21.3698 15.6572 21.3032 15.6572Z" fill="black"/>
</g>
<g id="Group_17">
<path id="Vector_14" d="M22.4772 22.5921C22.3445 22.5921 22.2232 22.5038 22.1878 22.3699C21.711 20.5953 22.38 18.7787 22.4088 18.7025C22.4671 18.5469 22.6406 18.4688 22.7943 18.5271C22.9499 18.5854 23.0286 18.7583 22.9703 18.9132C22.9643 18.9301 22.3415 20.6296 22.7667 22.2144C22.8099 22.3747 22.7151 22.5393 22.5553 22.5819C22.5289 22.5885 22.5031 22.5921 22.4772 22.5921Z" fill="black"/>
</g>
<g id="Group_18">
<path id="Vector_15" d="M21.3042 18.863C21.2772 18.863 21.2496 18.8594 21.2226 18.8522C21.0628 18.8072 20.9697 18.6408 21.0148 18.4817L21.4478 16.9503C21.4928 16.79 21.6603 16.6969 21.8183 16.7426C21.978 16.7876 22.0711 16.9533 22.0261 17.1131L21.5931 18.6444C21.5559 18.7772 21.4357 18.863 21.3042 18.863Z" fill="black"/>
</g>
<g id="Group_19">
<path id="Vector_16" d="M26.2154 18.9979C26.1883 18.9979 26.1607 18.9943 26.1337 18.9865C25.9739 18.9415 25.8809 18.7751 25.9259 18.616L26.3583 17.0846C26.4033 16.9249 26.5703 16.8324 26.7288 16.8769C26.8885 16.9219 26.9816 17.0882 26.9366 17.2474L26.5042 18.7787C26.467 18.9115 26.3469 18.9979 26.2154 18.9979Z" fill="black"/>
</g>
<g id="Group_20">
<path id="Vector_17" d="M21.7366 13.4493C21.7366 13.4493 22.232 12.7815 23.9015 12.7845C25.571 12.7881 26.5354 13.9723 26.5354 13.9723C26.5354 13.9723 26.6754 16.999 28.9322 18.5124C31.189 20.0257 32.052 19.4024 32.052 19.4024L33.704 18.8301L34.9333 16.4345L30.2156 11.2585L24.5459 8.83838L21.7372 11.9618L21.7366 13.4493Z" fill="black"/>
</g>
<g id="Group_21">
<path id="Vector_18" d="M24.1664 24.5387C24.0589 24.5387 23.9904 24.5321 23.9778 24.5303C23.8133 24.5135 23.6937 24.3663 23.7112 24.2018C23.7274 24.0372 23.8769 23.9147 24.0397 23.9334C24.0919 23.9364 25.3915 24.0487 25.9524 22.8788C26.0251 22.7293 26.204 22.6674 26.3535 22.7383C26.5031 22.8103 26.5661 22.9899 26.4941 23.1394C25.8833 24.4108 24.6414 24.5387 24.1664 24.5387Z" fill="black"/>
</g>
<g id="Group_22">
<path id="Vector_19" d="M21.5208 11.6044C21.5208 11.6044 23.8857 4.88265 32.2697 6.32093C40.6538 7.75921 37.8493 18.4187 37.8493 18.4187L34.0275 17.178L21.5208 11.6044Z" fill="#7772D3"/>
</g>
<g id="Group_23">
<path id="Vector_20" d="M19.0818 11.1304C19.0818 11.1304 22.0172 11.2373 29.5798 14.739C32.1867 15.9461 34.4603 17.3561 34.4603 17.3561C34.4603 17.3561 25.755 13.7001 22.3715 13.7415C21.0726 13.7571 20.2312 14.2435 20.2312 14.2435L19.0818 11.1304Z" fill="#5C5CC6"/>
</g>
<g id="Group_24">
<path id="Vector_21" d="M25.2654 34.8723C23.7749 34.8723 22.7288 34.6309 22.6345 34.6081C22.4735 34.5697 22.3739 34.4075 22.4123 34.246C22.4507 34.0844 22.6117 33.9859 22.7744 34.0238C22.8242 34.0358 27.7763 35.1714 31.6053 32.3357C31.7392 32.2372 31.9272 32.2654 32.0251 32.3975C32.1242 32.5315 32.0959 32.7188 31.9626 32.8173C29.7034 34.4916 27.1355 34.8723 25.2654 34.8723Z" fill="#46467F"/>
</g>
</g>
</svg>
