<svg width="56" height="56" viewBox="0 0 56 56" fill="none" xmlns="http://www.w3.org/2000/svg">
<g id="Group">
<path id="Vector" d="M56 28.0005C56 33.532 54.3966 38.6912 51.6221 43.0395C50.6012 44.6431 49.4241 46.1266 48.109 47.484C47.7667 47.8383 47.4183 48.1807 47.058 48.511C46.0912 49.4119 45.0582 50.2407 43.9653 51.0035C42.3318 52.1386 40.5722 53.1056 38.7106 53.8804C35.798 55.0876 32.6331 55.8143 29.3122 55.9705C28.8798 55.9885 28.4414 56.0005 28.003 56.0005C27.7868 56.0005 27.5646 56.0005 27.3424 55.9945C24.0575 55.9164 20.9107 55.2798 18.0041 54.1627C14.9413 52.9975 12.1428 51.3038 9.70467 49.1957C9.59056 49.0996 9.47646 48.9975 9.36837 48.8954C8.65974 48.2708 7.99314 47.6101 7.35657 46.9134C7.12836 46.6611 6.90016 46.4089 6.68397 46.1506C2.51024 41.2617 0 34.9254 0 28.0005C0 12.535 12.5392 0.000488281 28.003 0.000488281C43.4608 0.000488281 56 12.535 56 28.0005Z" fill="#EDDDD6"/>
<path id="Vector_2" d="M18.0039 54.1631C14.9412 52.998 12.1427 51.3043 9.70453 49.1962C9.59043 49.1001 9.47633 48.998 9.36824 48.8959C8.6596 48.2713 7.993 47.6106 7.35644 46.9139C7.12823 46.6616 6.90003 46.4094 6.68384 46.1511C8.89381 43.7728 11.5422 40.98 14.659 37.8028C14.755 37.7007 14.8571 37.6046 14.9592 37.5085C15.9261 36.5655 16.7128 36.043 17.3494 35.8508C21.8834 34.4935 18.9228 49.8328 18.0039 54.1631Z" fill="#7772D3"/>
<path id="Vector_3" d="M47.0581 48.5109C46.0912 49.4118 45.0583 50.2406 43.9653 51.0033C42.3318 52.1385 40.5723 53.1054 38.7106 53.8802C35.798 55.0874 32.6332 55.8142 29.3122 55.9703C28.8798 55.9883 28.4414 56.0003 28.003 56.0003C27.7869 56.0003 27.5646 56.0003 27.3425 55.9943C24.0575 55.9163 20.9107 55.2796 18.0041 54.1625C14.9414 52.9973 12.1429 51.3036 9.70471 49.1955C9.59061 49.0994 9.4765 48.9973 9.36841 48.8952C10.2752 45.2976 11.9027 40.5949 14.6591 37.8021C14.7552 37.7 14.8573 37.6039 14.9594 37.5079C15.68 36.8472 16.4908 36.2946 17.3495 35.8502C22.4901 33.1955 29.3963 34.0904 29.3963 34.0904C29.3963 34.0904 31.0898 34.1145 33.4739 34.8112C33.4739 34.8112 33.4919 34.8172 33.522 34.8232C33.552 34.8352 33.594 34.8472 33.6421 34.8652C35.9902 35.5499 38.9688 36.8952 41.6652 39.4658C42.0196 39.8021 42.3679 40.1625 42.7102 40.5409C44.5959 42.637 46.0131 45.5499 47.0581 48.5109Z" fill="#7772D3"/>
<path id="Vector_4" d="M30.7319 29.6558L30.55 35.0359C30.55 35.0359 29.4126 36.5699 25.8844 36.7843C23.2559 36.9441 22.3533 36.4029 22.3533 36.4029L22.8109 33.6822L23.2613 31.0293L29.6588 29.854L30.7319 29.6558Z" fill="#F27E64"/>
<path id="Vector_5" d="M24.38 37.2597C23.4606 37.2597 22.4793 37.1353 21.4614 36.8242C21.3029 36.7756 21.214 36.608 21.2621 36.4494C21.3107 36.2909 21.4752 36.1996 21.6374 36.2501C26.3282 37.6819 30.3332 34.823 30.3734 34.7936C30.5073 34.6969 30.6953 34.7251 30.7926 34.8597C30.8899 34.9936 30.8604 35.1816 30.7265 35.2795C30.589 35.3798 27.9556 37.2597 24.38 37.2597Z" fill="#FFB255"/>
<path id="Vector_6" d="M48.1091 47.4842C47.7667 47.8386 47.4184 48.1809 47.0581 48.5112C46.0912 49.4121 45.0583 50.241 43.9654 51.0037C42.3319 52.1389 40.5723 53.1058 38.7107 53.8806C35.7981 55.0878 32.6332 55.8145 29.3123 55.9707L33.474 34.8115C33.474 34.8115 33.492 34.8175 33.522 34.8235C33.9724 34.9737 37.7078 36.247 41.6653 39.4662C42.9865 40.5352 44.3317 41.8205 45.5868 43.3521C46.4996 44.4632 47.3644 45.8866 48.1091 47.4842Z" fill="#7772D3"/>
<path id="Vector_7" d="M29.6592 29.8691C29.6406 30.0331 29.5733 30.2259 29.4712 30.4463C28.057 33.4241 24.3595 33.9911 22.8413 34.0932L23.2683 31.1274L29.6592 29.8691Z" fill="black"/>
<path id="Vector_8" d="M22.2305 17.3713C22.2305 17.3713 18.9029 24.8505 20.0553 29.0734C21.2078 33.2956 25.0518 32.6583 27.3543 31.8589C29.6567 31.0595 30.7323 29.6577 30.7323 29.6577C30.7323 29.6577 32.8732 30.3995 34.3217 28.4139C35.7702 26.4283 34.9018 24.1304 33.6803 23.5971C32.4588 23.0637 30.9959 23.9388 30.9959 23.9388L32.1526 21.7664C32.1526 21.7664 27.4227 10.6547 22.2305 17.3713Z" fill="#F27E64"/>
<path id="Vector_9" d="M23.5764 28.5562C23.3878 28.5508 23.2575 28.4121 23.2623 28.2463C23.2671 28.0811 23.4029 27.9478 23.5704 27.955C23.6155 27.9538 24.6201 27.9688 25.4351 27.0217C25.5438 26.8967 25.7329 26.8829 25.8585 26.9898C25.984 27.0979 25.9984 27.2877 25.8903 27.4133C24.945 28.5112 23.7626 28.5562 23.5764 28.5562Z" fill="black"/>
<path id="Vector_10" d="M31.3149 27.5188C31.241 27.5188 31.1672 27.4918 31.1089 27.4371C30.9882 27.3236 30.9828 27.1332 31.0963 27.0125L33.1339 24.8533C33.2468 24.7332 33.4372 24.7272 33.5579 24.8407C33.6786 24.9542 33.684 25.1446 33.5705 25.2653L31.5335 27.4245C31.474 27.487 31.3948 27.5188 31.3149 27.5188Z" fill="black"/>
<path id="Vector_11" d="M33.4729 26.9402C33.4579 26.9402 33.4423 26.939 33.4273 26.9366L32.0178 26.7234C31.8545 26.6988 31.741 26.5456 31.7662 26.3817C31.7908 26.2171 31.9452 26.1048 32.1079 26.13L33.5174 26.3432C33.6807 26.3678 33.7942 26.521 33.769 26.685C33.7468 26.8333 33.6189 26.9402 33.4729 26.9402Z" fill="black"/>
<path id="Vector_12" d="M22.4601 26.2566C22.3316 26.2566 22.2133 26.1737 22.173 26.0452C21.6536 24.3665 22.9123 23.256 22.9663 23.2097C23.0906 23.1016 23.2798 23.1148 23.3885 23.241C23.4972 23.3659 23.4834 23.5551 23.3591 23.6644C23.3176 23.701 22.3448 24.5713 22.7459 25.868C22.7952 26.0265 22.7069 26.1947 22.5478 26.2434C22.5189 26.2524 22.4895 26.2566 22.4601 26.2566Z" fill="black"/>
<path id="Vector_13" d="M25.8434 24.7052C25.8308 24.7052 25.8176 24.704 25.8049 24.7028C25.641 24.6818 25.5239 24.5311 25.5449 24.3665L25.7917 22.4326C25.8127 22.268 25.9647 22.1533 26.128 22.1725C26.292 22.1935 26.4091 22.3443 26.3881 22.5088L26.1412 24.4428C26.1214 24.5941 25.9929 24.7052 25.8434 24.7052Z" fill="black"/>
<path id="Vector_14" d="M21.689 24.34C21.6746 24.34 21.6596 24.3388 21.6446 24.337C21.4806 24.313 21.3671 24.1604 21.3911 23.9965L21.671 22.098C21.6956 21.934 21.8464 21.8205 22.0121 21.8445C22.1754 21.8685 22.2895 22.0217 22.2655 22.1851L21.9857 24.0836C21.9635 24.2325 21.8349 24.34 21.689 24.34Z" fill="black"/>
<path id="Vector_15" d="M27.2141 21.4892C27.1054 21.4892 27.0009 21.4298 26.9474 21.3265C26.6297 20.7084 25.7638 20.8802 25.7253 20.8886C25.565 20.9204 25.4047 20.8195 25.3698 20.6574C25.335 20.4958 25.4377 20.3361 25.5998 20.3012C25.6551 20.2886 26.9516 20.0226 27.4813 21.0514C27.5576 21.1991 27.4993 21.3799 27.3516 21.4562C27.3071 21.4784 27.2603 21.4892 27.2141 21.4892Z" fill="black"/>
<path id="Vector_16" d="M23.1628 20.6254C23.0673 20.6254 22.9737 20.5797 22.9148 20.4944C22.7971 20.3215 22.6602 20.2272 22.4992 20.2068C22.1629 20.1665 21.7612 20.4404 21.6351 20.5503C21.5101 20.6596 21.321 20.647 21.2117 20.5227C21.1024 20.3983 21.1138 20.2098 21.2381 20.0999C21.3048 20.041 21.9095 19.5287 22.5719 19.6104C22.9058 19.6518 23.1959 19.8398 23.4114 20.1551C23.5045 20.292 23.4697 20.4788 23.3328 20.5725C23.2805 20.6086 23.2211 20.6254 23.1628 20.6254Z" fill="black"/>
<path id="Vector_17" d="M30.996 23.9391C30.996 23.9391 30.6471 25.6941 29.6592 25.0592C28.6713 24.4244 30.996 21.1896 30.996 21.1896C30.996 21.1896 28.2678 22.1373 26.5701 19.9031C24.8724 17.6689 25.6627 16.261 25.6627 16.261L21.8649 18.2562C21.8649 18.2562 21.0698 13.7607 22.4078 12.8995C23.7464 12.0382 26.0002 12.8995 26.0002 12.8995C26.0002 12.8995 25.862 10.9644 29.6592 11.431C33.4564 11.8977 33.3525 15.8388 33.3525 15.8388C33.3525 15.8388 35.849 15.7277 36.6933 17.965C37.5377 20.2022 35.9895 21.9295 35.9895 21.9295C35.9895 21.9295 37.7599 22.3289 36.9449 23.8695C36.13 25.41 35.0779 26.1397 35.0779 26.1397C35.0779 26.1397 34.5866 22.8911 30.996 23.9391Z" fill="black"/>
</g>
</svg>
